<svg xmlns="http://www.w3.org/2000/svg" xmlns:xlink="http://www.w3.org/1999/xlink" contentStyleType="text/css" data-diagram-type="CLASS" height="1146px" preserveAspectRatio="none" style="width:1121px;height:1146px;background:#FFFFFF;" version="1.1" viewBox="0 0 1121 1146" width="1121px" zoomAndPan="magnify"><defs/><g><!--cluster Phpolar--><g id="cluster_Phpolar"><path d="M16.5,60 L78.5176,60 A3.75,3.75 0 0 1 81.0176,62.5 L88.0176,82.2969 L1111.5,82.2969 A2.5,2.5 0 0 1 1114,84.7969 L1114,1089.5 A2.5,2.5 0 0 1 1111.5,1092 L16.5,1092 A2.5,2.5 0 0 1 14,1089.5 L14,62.5 A2.5,2.5 0 0 1 16.5,60 " fill="transparent" style="stroke:#000000;stroke-width:1.5;"/><line style="stroke:#000000;stroke-width:1.5;" x1="14" x2="88.0176" y1="82.2969" y2="82.2969"/><text fill="#000000" font-family="sans-serif" font-size="14" font-weight="bold" lengthAdjust="spacing" textLength="61.0176" x="18" y="74.9951">Phpolar</text></g><!--cluster Model--><g id="cluster_Model"><path d="M258.5,87 L307.3652,87 A3.75,3.75 0 0 1 309.8652,89.5 L316.8652,109.2969 L1103.5,109.2969 A2.5,2.5 0 0 1 1106,111.7969 L1106,1081.5 A2.5,2.5 0 0 1 1103.5,1084 L258.5,1084 A2.5,2.5 0 0 1 256,1081.5 L256,89.5 A2.5,2.5 0 0 1 258.5,87 " fill="transparent" style="stroke:#000000;stroke-width:1.5;"/><line style="stroke:#000000;stroke-width:1.5;" x1="256" x2="316.8652" y1="109.2969" y2="109.2969"/><text fill="#000000" font-family="sans-serif" font-size="14" font-weight="bold" lengthAdjust="spacing" textLength="47.8652" x="260" y="101.9951">Model</text></g><!--cluster ModelResolver--><g id="cluster_ModelResolver"><path d="M24.5,663 L141.916,663 A3.75,3.75 0 0 1 144.416,665.5 L151.416,685.2969 L232.5,685.2969 A2.5,2.5 0 0 1 235,687.7969 L235,735.5 A2.5,2.5 0 0 1 232.5,738 L24.5,738 A2.5,2.5 0 0 1 22,735.5 L22,665.5 A2.5,2.5 0 0 1 24.5,663 " fill="transparent" style="stroke:#000000;stroke-width:1.5;"/><line style="stroke:#000000;stroke-width:1.5;" x1="22" x2="151.416" y1="685.2969" y2="685.2969"/><text fill="#000000" font-family="sans-serif" font-size="14" font-weight="bold" lengthAdjust="spacing" textLength="116.416" x="26" y="677.9951">ModelResolver</text></g><!--class IteratorAggregate__class--><g id="elem_IteratorAggregate__class"><rect codeLine="14" fill="#F1F1F1" height="40.2656" id="IteratorAggregate__class" rx="2.5" ry="2.5" style="stroke:#181818;stroke-width:0.5;" width="157.665" x="339" y="12"/><ellipse cx="354" cy="32.1328" fill="#B4A7E5" rx="11" ry="11" style="stroke:#181818;stroke-width:1;"/><path d="M349.9219,27.8984 L349.9219,25.7422 L357.3125,25.7422 L357.3125,27.8984 L354.8438,27.8984 L354.8438,35.9766 L357.3125,35.9766 L357.3125,38.1328 L349.9219,38.1328 L349.9219,35.9766 L352.3906,35.9766 L352.3906,27.8984 L349.9219,27.8984 Z " fill="#000000"/><text fill="#000000" font-family="sans-serif" font-size="12" font-style="italic" lengthAdjust="spacing" textLength="64.4824" x="398.5913" y="28.1387">&#171;external&#187;</text><text fill="#000000" font-family="sans-serif" font-size="14" font-style="italic" lengthAdjust="spacing" textLength="125.665" x="368" y="43.9639">IteratorAggregate</text></g><!--class RuntimeException__class--><g id="elem_RuntimeException__class"><rect codeLine="110" fill="#F1F1F1" height="40.2656" id="RuntimeException__class" rx="2.5" ry="2.5" style="stroke:#181818;stroke-width:0.5;" width="160.249" x="48.5" y="1100"/><ellipse cx="63.5" cy="1120.1328" fill="#ADD1B2" rx="11" ry="11" style="stroke:#181818;stroke-width:1;"/><path d="M66.4688,1125.7734 Q65.8906,1126.0703 65.25,1126.2109 Q64.6094,1126.3672 63.9063,1126.3672 Q61.4063,1126.3672 60.0781,1124.7266 Q58.7656,1123.0703 58.7656,1119.9453 Q58.7656,1116.8203 60.0781,1115.1641 Q61.4063,1113.5078 63.9063,1113.5078 Q64.6094,1113.5078 65.25,1113.6641 Q65.9063,1113.8203 66.4688,1114.1172 L66.4688,1116.8359 Q65.8438,1116.2578 65.25,1115.9922 Q64.6563,1115.7109 64.0313,1115.7109 Q62.6875,1115.7109 62,1116.7891 Q61.3125,1117.8516 61.3125,1119.9453 Q61.3125,1122.0391 62,1123.1172 Q62.6875,1124.1797 64.0313,1124.1797 Q64.6563,1124.1797 65.25,1123.9141 Q65.8438,1123.6328 66.4688,1123.0547 L66.4688,1125.7734 Z " fill="#000000"/><text fill="#000000" font-family="sans-serif" font-size="12" font-style="italic" lengthAdjust="spacing" textLength="64.4824" x="109.3833" y="1116.1387">&#171;external&#187;</text><text fill="#000000" font-family="sans-serif" font-size="14" lengthAdjust="spacing" textLength="128.249" x="77.5" y="1131.9639">RuntimeException</text></g><!--class ColumnNameTrait__trait--><g id="elem_ColumnNameTrait__trait"><rect codeLine="17" fill="#F1F1F1" height="40.2656" id="ColumnNameTrait__trait" rx="2.5" ry="2.5" style="stroke:#181818;stroke-width:0.5;" width="159.1826" x="338.5" y="114"/><ellipse cx="353.5" cy="134.1328" fill="#FF7700" rx="11" ry="11" style="stroke:#181818;stroke-width:1;"/><path d="M354.3438,140.8828 L351.8906,140.8828 L351.8906,130.6328 L348.75,130.6328 L348.75,128.4922 L357.4844,128.4922 L357.4844,130.6328 L354.3438,130.6328 L354.3438,140.8828 Z " fill="#000000"/><text fill="#000000" font-family="sans-serif" font-size="12" font-style="italic" lengthAdjust="spacing" textLength="42.3398" x="409.9214" y="130.1387">&#171;Trait&#187;</text><text fill="#000000" font-family="sans-serif" font-size="14" lengthAdjust="spacing" textLength="127.1826" x="367.5" y="145.9639">ColumnNameTrait</text></g><!--class DataTypeDetectionTrait__trait--><g id="elem_DataTypeDetectionTrait__trait"><rect codeLine="21" fill="#F1F1F1" height="40.2656" id="DataTypeDetectionTrait__trait" rx="2.5" ry="2.5" style="stroke:#181818;stroke-width:0.5;" width="200.041" x="318" y="172"/><ellipse cx="333" cy="192.1328" fill="#FF7700" rx="11" ry="11" style="stroke:#181818;stroke-width:1;"/><path d="M333.8438,198.8828 L331.3906,198.8828 L331.3906,188.6328 L328.25,188.6328 L328.25,186.4922 L336.9844,186.4922 L336.9844,188.6328 L333.8438,188.6328 L333.8438,198.8828 Z " fill="#000000"/><text fill="#000000" font-family="sans-serif" font-size="12" font-style="italic" lengthAdjust="spacing" textLength="42.3398" x="409.8506" y="188.1387">&#171;Trait&#187;</text><text fill="#000000" font-family="sans-serif" font-size="14" lengthAdjust="spacing" textLength="168.041" x="347" y="203.9639">DataTypeDetectionTrait</text></g><!--class EntityNameConfigurationTrait__trait--><g id="elem_EntityNameConfigurationTrait__trait"><rect codeLine="25" fill="#F1F1F1" height="40.2656" id="EntityNameConfigurationTrait__trait" rx="2.5" ry="2.5" style="stroke:#181818;stroke-width:0.5;" width="241.3848" x="297.5" y="230"/><ellipse cx="312.5" cy="250.1328" fill="#FF7700" rx="11" ry="11" style="stroke:#181818;stroke-width:1;"/><path d="M313.3438,256.8828 L310.8906,256.8828 L310.8906,246.6328 L307.75,246.6328 L307.75,244.4922 L316.4844,244.4922 L316.4844,246.6328 L313.3438,246.6328 L313.3438,256.8828 Z " fill="#000000"/><text fill="#000000" font-family="sans-serif" font-size="12" font-style="italic" lengthAdjust="spacing" textLength="42.3398" x="410.0225" y="246.1387">&#171;Trait&#187;</text><text fill="#000000" font-family="sans-serif" font-size="14" lengthAdjust="spacing" textLength="209.3848" x="326.5" y="261.9639">EntityNameConfigurationTrait</text></g><!--class FieldErrorMessageTrait__trait--><g id="elem_FieldErrorMessageTrait__trait"><rect codeLine="29" fill="#F1F1F1" height="40.2656" id="FieldErrorMessageTrait__trait" rx="2.5" ry="2.5" style="stroke:#181818;stroke-width:0.5;" width="193.6357" x="321" y="288"/><ellipse cx="336" cy="308.1328" fill="#FF7700" rx="11" ry="11" style="stroke:#181818;stroke-width:1;"/><path d="M336.8438,314.8828 L334.3906,314.8828 L334.3906,304.6328 L331.25,304.6328 L331.25,302.4922 L339.9844,302.4922 L339.9844,304.6328 L336.8438,304.6328 L336.8438,314.8828 Z " fill="#000000"/><text fill="#000000" font-family="sans-serif" font-size="12" font-style="italic" lengthAdjust="spacing" textLength="42.3398" x="409.6479" y="304.1387">&#171;Trait&#187;</text><text fill="#000000" font-family="sans-serif" font-size="14" lengthAdjust="spacing" textLength="161.6357" x="350" y="319.9639">FieldErrorMessageTrait</text></g><!--class FormInputTypeDetectionTrait__trait--><g id="elem_FormInputTypeDetectionTrait__trait"><rect codeLine="33" fill="#F1F1F1" height="40.2656" id="FormInputTypeDetectionTrait__trait" rx="2.5" ry="2.5" style="stroke:#181818;stroke-width:0.5;" width="238.876" x="298.5" y="346"/><ellipse cx="313.5" cy="366.1328" fill="#FF7700" rx="11" ry="11" style="stroke:#181818;stroke-width:1;"/><path d="M314.3438,372.8828 L311.8906,372.8828 L311.8906,362.6328 L308.75,362.6328 L308.75,360.4922 L317.4844,360.4922 L317.4844,362.6328 L314.3438,362.6328 L314.3438,372.8828 Z " fill="#000000"/><text fill="#000000" font-family="sans-serif" font-size="12" font-style="italic" lengthAdjust="spacing" textLength="42.3398" x="409.7681" y="362.1387">&#171;Trait&#187;</text><text fill="#000000" font-family="sans-serif" font-size="14" lengthAdjust="spacing" textLength="206.876" x="327.5" y="377.9639">FormInputTypeDetectionTrait</text></g><!--class FormControlTypeDetectionTrait__trait--><g id="elem_FormControlTypeDetectionTrait__trait"><rect codeLine="37" fill="#F1F1F1" height="40.2656" id="FormControlTypeDetectionTrait__trait" rx="2.5" ry="2.5" style="stroke:#181818;stroke-width:0.5;" width="253.5391" x="291" y="404"/><ellipse cx="306" cy="424.1328" fill="#FF7700" rx="11" ry="11" style="stroke:#181818;stroke-width:1;"/><path d="M306.8438,430.8828 L304.3906,430.8828 L304.3906,420.6328 L301.25,420.6328 L301.25,418.4922 L309.9844,418.4922 L309.9844,420.6328 L306.8438,420.6328 L306.8438,430.8828 Z " fill="#000000"/><text fill="#000000" font-family="sans-serif" font-size="12" font-style="italic" lengthAdjust="spacing" textLength="42.3398" x="409.5996" y="420.1387">&#171;Trait&#187;</text><text fill="#000000" font-family="sans-serif" font-size="14" lengthAdjust="spacing" textLength="221.5391" x="320" y="435.9639">FormControlTypeDetectionTrait</text></g><!--class LabelFormatTrait__trait--><g id="elem_LabelFormatTrait__trait"><rect codeLine="41" fill="#F1F1F1" height="40.2656" id="LabelFormatTrait__trait" rx="2.5" ry="2.5" style="stroke:#181818;stroke-width:0.5;" width="152.1143" x="342" y="462"/><ellipse cx="357" cy="482.1328" fill="#FF7700" rx="11" ry="11" style="stroke:#181818;stroke-width:1;"/><path d="M357.8438,488.8828 L355.3906,488.8828 L355.3906,478.6328 L352.25,478.6328 L352.25,476.4922 L360.9844,476.4922 L360.9844,478.6328 L357.8438,478.6328 L357.8438,488.8828 Z " fill="#000000"/><text fill="#000000" font-family="sans-serif" font-size="12" font-style="italic" lengthAdjust="spacing" textLength="42.3398" x="409.8872" y="478.1387">&#171;Trait&#187;</text><text fill="#000000" font-family="sans-serif" font-size="14" lengthAdjust="spacing" textLength="120.1143" x="371" y="493.9639">LabelFormatTrait</text></g><!--class PrimaryKeyTrait__trait--><g id="elem_PrimaryKeyTrait__trait"><rect codeLine="45" fill="#F1F1F1" height="40.2656" id="PrimaryKeyTrait__trait" rx="2.5" ry="2.5" style="stroke:#181818;stroke-width:0.5;" width="144.6904" x="345.5" y="520"/><ellipse cx="360.5" cy="540.1328" fill="#FF7700" rx="11" ry="11" style="stroke:#181818;stroke-width:1;"/><path d="M361.3438,546.8828 L358.8906,546.8828 L358.8906,536.6328 L355.75,536.6328 L355.75,534.4922 L364.4844,534.4922 L364.4844,536.6328 L361.3438,536.6328 L361.3438,546.8828 Z " fill="#000000"/><text fill="#000000" font-family="sans-serif" font-size="12" font-style="italic" lengthAdjust="spacing" textLength="42.3398" x="409.6753" y="536.1387">&#171;Trait&#187;</text><text fill="#000000" font-family="sans-serif" font-size="14" lengthAdjust="spacing" textLength="112.6904" x="374.5" y="551.9639">PrimaryKeyTrait</text></g><!--class SizeConfigurationTrait__trait--><g id="elem_SizeConfigurationTrait__trait"><rect codeLine="49" fill="#F1F1F1" height="40.2656" id="SizeConfigurationTrait__trait" rx="2.5" ry="2.5" style="stroke:#181818;stroke-width:0.5;" width="187.9482" x="324" y="578"/><ellipse cx="339" cy="598.1328" fill="#FF7700" rx="11" ry="11" style="stroke:#181818;stroke-width:1;"/><path d="M339.8438,604.8828 L337.3906,604.8828 L337.3906,594.6328 L334.25,594.6328 L334.25,592.4922 L342.9844,592.4922 L342.9844,594.6328 L339.8438,594.6328 L339.8438,604.8828 Z " fill="#000000"/><text fill="#000000" font-family="sans-serif" font-size="12" font-style="italic" lengthAdjust="spacing" textLength="42.3398" x="409.8042" y="594.1387">&#171;Trait&#187;</text><text fill="#000000" font-family="sans-serif" font-size="14" lengthAdjust="spacing" textLength="155.9482" x="353" y="609.9639">SizeConfigurationTrait</text></g><!--class ValidationTrait__trait--><g id="elem_ValidationTrait__trait"><rect codeLine="53" fill="#F1F1F1" height="40.2656" id="ValidationTrait__trait" rx="2.5" ry="2.5" style="stroke:#181818;stroke-width:0.5;" width="134.4844" x="351" y="636"/><ellipse cx="366" cy="656.1328" fill="#FF7700" rx="11" ry="11" style="stroke:#181818;stroke-width:1;"/><path d="M366.8438,662.8828 L364.3906,662.8828 L364.3906,652.6328 L361.25,652.6328 L361.25,650.4922 L369.9844,650.4922 L369.9844,652.6328 L366.8438,652.6328 L366.8438,662.8828 Z " fill="#000000"/><text fill="#000000" font-family="sans-serif" font-size="12" font-style="italic" lengthAdjust="spacing" textLength="42.3398" x="410.0723" y="652.1387">&#171;Trait&#187;</text><text fill="#000000" font-family="sans-serif" font-size="14" lengthAdjust="spacing" textLength="102.4844" x="380" y="667.9639">ValidationTrait</text></g><!--class AbstractModel__class--><g id="elem_AbstractModel__class"><rect codeLine="67" fill="#F1F1F1" height="32" id="AbstractModel__class" rx="2.5" ry="2.5" style="stroke:#181818;stroke-width:0.5;" width="132.8027" x="702" y="350"/><ellipse cx="717" cy="366" fill="#A9DCDF" rx="11" ry="11" style="stroke:#181818;stroke-width:1;"/><path d="M717.1094,361.3438 L715.9531,366.4219 L718.2813,366.4219 L717.1094,361.3438 Z M715.625,359.1094 L718.6094,359.1094 L721.9688,371.5 L719.5156,371.5 L718.75,368.4375 L715.4688,368.4375 L714.7188,371.5 L712.2813,371.5 L715.625,359.1094 Z " fill="#000000"/><text fill="#000000" font-family="sans-serif" font-size="14" font-style="italic" lengthAdjust="spacing" textLength="100.8027" x="731" y="370.8467">AbstractModel</text></g><!--class AbstractModelResolver__class--><g id="elem_AbstractModelResolver__class"><rect codeLine="75" fill="#F1F1F1" height="32" id="AbstractModelResolver__class" rx="2.5" ry="2.5" style="stroke:#181818;stroke-width:0.5;" width="193.5469" x="321" y="694"/><ellipse cx="336" cy="710" fill="#A9DCDF" rx="11" ry="11" style="stroke:#181818;stroke-width:1;"/><path d="M336.1094,705.3438 L334.9531,710.4219 L337.2813,710.4219 L336.1094,705.3438 Z M334.625,703.1094 L337.6094,703.1094 L340.9688,715.5 L338.5156,715.5 L337.75,712.4375 L334.4688,712.4375 L333.7188,715.5 L331.2813,715.5 L334.625,703.1094 Z " fill="#000000"/><text fill="#000000" font-family="sans-serif" font-size="14" font-style="italic" lengthAdjust="spacing" textLength="161.5469" x="350" y="714.8467">AbstractModelResolver</text></g><!--class AbstractPropertyNameExtractor__class--><g id="elem_AbstractPropertyNameExtractor__class"><rect codeLine="79" fill="#F1F1F1" height="32" id="AbstractPropertyNameExtractor__class" rx="2.5" ry="2.5" style="stroke:#181818;stroke-width:0.5;" width="256.3281" x="290" y="744"/><ellipse cx="305" cy="760" fill="#A9DCDF" rx="11" ry="11" style="stroke:#181818;stroke-width:1;"/><path d="M305.1094,755.3438 L303.9531,760.4219 L306.2813,760.4219 L305.1094,755.3438 Z M303.625,753.1094 L306.6094,753.1094 L309.9688,765.5 L307.5156,765.5 L306.75,762.4375 L303.4688,762.4375 L302.7188,765.5 L300.2813,765.5 L303.625,753.1094 Z " fill="#000000"/><text fill="#000000" font-family="sans-serif" font-size="14" font-style="italic" lengthAdjust="spacing" textLength="224.3281" x="319" y="764.8467">AbstractPropertyNameExtractor</text></g><!--class PropertyValueSetterInterface__interface--><g id="elem_PropertyValueSetterInterface__interface"><rect codeLine="83" fill="#F1F1F1" height="32" id="PropertyValueSetterInterface__interface" rx="2.5" ry="2.5" style="stroke:#181818;stroke-width:0.5;" width="236.8525" x="299.5" y="794"/><ellipse cx="314.5" cy="810" fill="#B4A7E5" rx="11" ry="11" style="stroke:#181818;stroke-width:1;"/><path d="M310.4219,805.7656 L310.4219,803.6094 L317.8125,803.6094 L317.8125,805.7656 L315.3438,805.7656 L315.3438,813.8438 L317.8125,813.8438 L317.8125,816 L310.4219,816 L310.4219,813.8438 L312.8906,813.8438 L312.8906,805.7656 L310.4219,805.7656 Z " fill="#000000"/><text fill="#000000" font-family="sans-serif" font-size="14" font-style="italic" lengthAdjust="spacing" textLength="204.8525" x="328.5" y="814.8467">PropertyValueSetterInterface</text></g><!--class AbstractPropertyValueExtractor__class--><g id="elem_AbstractPropertyValueExtractor__class"><rect codeLine="87" fill="#F1F1F1" height="32" id="AbstractPropertyValueExtractor__class" rx="2.5" ry="2.5" style="stroke:#181818;stroke-width:0.5;" width="254.5576" x="641" y="844"/><ellipse cx="656" cy="860" fill="#A9DCDF" rx="11" ry="11" style="stroke:#181818;stroke-width:1;"/><path d="M656.1094,855.3438 L654.9531,860.4219 L657.2813,860.4219 L656.1094,855.3438 Z M654.625,853.1094 L657.6094,853.1094 L660.9688,865.5 L658.5156,865.5 L657.75,862.4375 L654.4688,862.4375 L653.7188,865.5 L651.2813,865.5 L654.625,853.1094 Z " fill="#000000"/><text fill="#000000" font-family="sans-serif" font-size="14" font-style="italic" lengthAdjust="spacing" textLength="222.5576" x="670" y="864.8467">AbstractPropertyValueExtractor</text></g><!--class Column__class--><g id="elem_Column__class"><rect codeLine="91" fill="#F1F1F1" height="32" id="Column__class" rx="2.5" ry="2.5" style="stroke:#181818;stroke-width:0.5;" width="85.6143" x="725.5" y="794"/><ellipse cx="740.5" cy="810" fill="#ADD1B2" rx="11" ry="11" style="stroke:#181818;stroke-width:1;"/><path d="M743.4688,815.6406 Q742.8906,815.9375 742.25,816.0781 Q741.6094,816.2344 740.9063,816.2344 Q738.4063,816.2344 737.0781,814.5938 Q735.7656,812.9375 735.7656,809.8125 Q735.7656,806.6875 737.0781,805.0313 Q738.4063,803.375 740.9063,803.375 Q741.6094,803.375 742.25,803.5313 Q742.9063,803.6875 743.4688,803.9844 L743.4688,806.7031 Q742.8438,806.125 742.25,805.8594 Q741.6563,805.5781 741.0313,805.5781 Q739.6875,805.5781 739,806.6563 Q738.3125,807.7188 738.3125,809.8125 Q738.3125,811.9063 739,812.9844 Q739.6875,814.0469 741.0313,814.0469 Q741.6563,814.0469 742.25,813.7813 Q742.8438,813.5 743.4688,812.9219 L743.4688,815.6406 Z " fill="#000000"/><text fill="#000000" font-family="sans-serif" font-size="14" lengthAdjust="spacing" textLength="53.6143" x="754.5" y="814.8467">Column</text></g><!--class DefaultColumnName__class--><g id="elem_DefaultColumnName__class"><rect codeLine="95" fill="#F1F1F1" height="32" id="DefaultColumnName__class" rx="2.5" ry="2.5" style="stroke:#181818;stroke-width:0.5;" width="178.0703" x="679.5" y="744"/><ellipse cx="694.5" cy="760" fill="#ADD1B2" rx="11" ry="11" style="stroke:#181818;stroke-width:1;"/><path d="M697.4688,765.6406 Q696.8906,765.9375 696.25,766.0781 Q695.6094,766.2344 694.9063,766.2344 Q692.4063,766.2344 691.0781,764.5938 Q689.7656,762.9375 689.7656,759.8125 Q689.7656,756.6875 691.0781,755.0313 Q692.4063,753.375 694.9063,753.375 Q695.6094,753.375 696.25,753.5313 Q696.9063,753.6875 697.4688,753.9844 L697.4688,756.7031 Q696.8438,756.125 696.25,755.8594 Q695.6563,755.5781 695.0313,755.5781 Q693.6875,755.5781 693,756.6563 Q692.3125,757.7188 692.3125,759.8125 Q692.3125,761.9063 693,762.9844 Q693.6875,764.0469 695.0313,764.0469 Q695.6563,764.0469 696.25,763.7813 Q696.8438,763.5 697.4688,762.9219 L697.4688,765.6406 Z " fill="#000000"/><text fill="#000000" font-family="sans-serif" font-size="14" lengthAdjust="spacing" textLength="146.0703" x="708.5" y="764.8467">DefaultColumnName</text></g><!--class DefaultLabelFormat__class--><g id="elem_DefaultLabelFormat__class"><rect codeLine="99" fill="#F1F1F1" height="32" id="DefaultLabelFormat__class" rx="2.5" ry="2.5" style="stroke:#181818;stroke-width:0.5;" width="171.002" x="683" y="694"/><ellipse cx="698" cy="710" fill="#ADD1B2" rx="11" ry="11" style="stroke:#181818;stroke-width:1;"/><path d="M700.9688,715.6406 Q700.3906,715.9375 699.75,716.0781 Q699.1094,716.2344 698.4063,716.2344 Q695.9063,716.2344 694.5781,714.5938 Q693.2656,712.9375 693.2656,709.8125 Q693.2656,706.6875 694.5781,705.0313 Q695.9063,703.375 698.4063,703.375 Q699.1094,703.375 699.75,703.5313 Q700.4063,703.6875 700.9688,703.9844 L700.9688,706.7031 Q700.3438,706.125 699.75,705.8594 Q699.1563,705.5781 698.5313,705.5781 Q697.1875,705.5781 696.5,706.6563 Q695.8125,707.7188 695.8125,709.8125 Q695.8125,711.9063 696.5,712.9844 Q697.1875,714.0469 698.5313,714.0469 Q699.1563,714.0469 699.75,713.7813 Q700.3438,713.5 700.9688,712.9219 L700.9688,715.6406 Z " fill="#000000"/><text fill="#000000" font-family="sans-serif" font-size="14" lengthAdjust="spacing" textLength="139.002" x="712" y="714.8467">DefaultLabelFormat</text></g><!--class EntityName__class--><g id="elem_EntityName__class"><rect codeLine="103" fill="#F1F1F1" height="32" id="EntityName__class" rx="2.5" ry="2.5" style="stroke:#181818;stroke-width:0.5;" width="114.1748" x="361" y="994"/><ellipse cx="376" cy="1010" fill="#ADD1B2" rx="11" ry="11" style="stroke:#181818;stroke-width:1;"/><path d="M378.9688,1015.6406 Q378.3906,1015.9375 377.75,1016.0781 Q377.1094,1016.2344 376.4063,1016.2344 Q373.9063,1016.2344 372.5781,1014.5938 Q371.2656,1012.9375 371.2656,1009.8125 Q371.2656,1006.6875 372.5781,1005.0313 Q373.9063,1003.375 376.4063,1003.375 Q377.1094,1003.375 377.75,1003.5313 Q378.4063,1003.6875 378.9688,1003.9844 L378.9688,1006.7031 Q378.3438,1006.125 377.75,1005.8594 Q377.1563,1005.5781 376.5313,1005.5781 Q375.1875,1005.5781 374.5,1006.6563 Q373.8125,1007.7188 373.8125,1009.8125 Q373.8125,1011.9063 374.5,1012.9844 Q375.1875,1014.0469 376.5313,1014.0469 Q377.1563,1014.0469 377.75,1013.7813 Q378.3438,1013.5 378.9688,1012.9219 L378.9688,1015.6406 Z " fill="#000000"/><text fill="#000000" font-family="sans-serif" font-size="14" lengthAdjust="spacing" textLength="82.1748" x="390" y="1014.8467">EntityName</text></g><!--class Hidden__class--><g id="elem_Hidden__class"><rect codeLine="107" fill="#F1F1F1" height="32" id="Hidden__class" rx="2.5" ry="2.5" style="stroke:#181818;stroke-width:0.5;" width="81.6768" x="377" y="944"/><ellipse cx="392" cy="960" fill="#ADD1B2" rx="11" ry="11" style="stroke:#181818;stroke-width:1;"/><path d="M394.9688,965.6406 Q394.3906,965.9375 393.75,966.0781 Q393.1094,966.2344 392.4063,966.2344 Q389.9063,966.2344 388.5781,964.5938 Q387.2656,962.9375 387.2656,959.8125 Q387.2656,956.6875 388.5781,955.0313 Q389.9063,953.375 392.4063,953.375 Q393.1094,953.375 393.75,953.5313 Q394.4063,953.6875 394.9688,953.9844 L394.9688,956.7031 Q394.3438,956.125 393.75,955.8594 Q393.1563,955.5781 392.5313,955.5781 Q391.1875,955.5781 390.5,956.6563 Q389.8125,957.7188 389.8125,959.8125 Q389.8125,961.9063 390.5,962.9844 Q391.1875,964.0469 392.5313,964.0469 Q393.1563,964.0469 393.75,963.7813 Q394.3438,963.5 394.9688,962.9219 L394.9688,965.6406 Z " fill="#000000"/><text fill="#000000" font-family="sans-serif" font-size="14" lengthAdjust="spacing" textLength="49.6768" x="406" y="964.8467">Hidden</text></g><!--class InvalidInputTypeCastToStringException__class--><g id="elem_InvalidInputTypeCastToStringException__class"><rect codeLine="113" fill="#F1F1F1" height="32" id="InvalidInputTypeCastToStringException__class" rx="2.5" ry="2.5" style="stroke:#181818;stroke-width:0.5;" width="308.3018" x="264" y="1044"/><ellipse cx="279" cy="1060" fill="#ADD1B2" rx="11" ry="11" style="stroke:#181818;stroke-width:1;"/><path d="M281.9688,1065.6406 Q281.3906,1065.9375 280.75,1066.0781 Q280.1094,1066.2344 279.4063,1066.2344 Q276.9063,1066.2344 275.5781,1064.5938 Q274.2656,1062.9375 274.2656,1059.8125 Q274.2656,1056.6875 275.5781,1055.0313 Q276.9063,1053.375 279.4063,1053.375 Q280.1094,1053.375 280.75,1053.5313 Q281.4063,1053.6875 281.9688,1053.9844 L281.9688,1056.7031 Q281.3438,1056.125 280.75,1055.8594 Q280.1563,1055.5781 279.5313,1055.5781 Q278.1875,1055.5781 277.5,1056.6563 Q276.8125,1057.7188 276.8125,1059.8125 Q276.8125,1061.9063 277.5,1062.9844 Q278.1875,1064.0469 279.5313,1064.0469 Q280.1563,1064.0469 280.75,1063.7813 Q281.3438,1063.5 281.9688,1062.9219 L281.9688,1065.6406 Z " fill="#000000"/><text fill="#000000" font-family="sans-serif" font-size="14" lengthAdjust="spacing" textLength="276.3018" x="293" y="1064.8467">InvalidInputTypeCastToStringException</text></g><!--class JsonResolver__class--><g id="elem_JsonResolver__class"><rect codeLine="117" fill="#F1F1F1" height="32" id="JsonResolver__class" rx="2.5" ry="2.5" style="stroke:#181818;stroke-width:0.5;" width="121.6055" x="707.5" y="594"/><ellipse cx="722.5" cy="610" fill="#ADD1B2" rx="11" ry="11" style="stroke:#181818;stroke-width:1;"/><path d="M725.4688,615.6406 Q724.8906,615.9375 724.25,616.0781 Q723.6094,616.2344 722.9063,616.2344 Q720.4063,616.2344 719.0781,614.5938 Q717.7656,612.9375 717.7656,609.8125 Q717.7656,606.6875 719.0781,605.0313 Q720.4063,603.375 722.9063,603.375 Q723.6094,603.375 724.25,603.5313 Q724.9063,603.6875 725.4688,603.9844 L725.4688,606.7031 Q724.8438,606.125 724.25,605.8594 Q723.6563,605.5781 723.0313,605.5781 Q721.6875,605.5781 721,606.6563 Q720.3125,607.7188 720.3125,609.8125 Q720.3125,611.9063 721,612.9844 Q721.6875,614.0469 723.0313,614.0469 Q723.6563,614.0469 724.25,613.7813 Q724.8438,613.5 725.4688,612.9219 L725.4688,615.6406 Z " fill="#000000"/><text fill="#000000" font-family="sans-serif" font-size="14" lengthAdjust="spacing" textLength="89.6055" x="736.5" y="614.8467">JsonResolver</text></g><!--class Label__class--><g id="elem_Label__class"><rect codeLine="121" fill="#F1F1F1" height="32" id="Label__class" rx="2.5" ry="2.5" style="stroke:#181818;stroke-width:0.5;" width="69.7686" x="733.5" y="644"/><ellipse cx="748.5" cy="660" fill="#ADD1B2" rx="11" ry="11" style="stroke:#181818;stroke-width:1;"/><path d="M751.4688,665.6406 Q750.8906,665.9375 750.25,666.0781 Q749.6094,666.2344 748.9063,666.2344 Q746.4063,666.2344 745.0781,664.5938 Q743.7656,662.9375 743.7656,659.8125 Q743.7656,656.6875 745.0781,655.0313 Q746.4063,653.375 748.9063,653.375 Q749.6094,653.375 750.25,653.5313 Q750.9063,653.6875 751.4688,653.9844 L751.4688,656.7031 Q750.8438,656.125 750.25,655.8594 Q749.6563,655.5781 749.0313,655.5781 Q747.6875,655.5781 747,656.6563 Q746.3125,657.7188 746.3125,659.8125 Q746.3125,661.9063 747,662.9844 Q747.6875,664.0469 749.0313,664.0469 Q749.6563,664.0469 750.25,663.7813 Q750.8438,663.5 751.4688,662.9219 L751.4688,665.6406 Z " fill="#000000"/><text fill="#000000" font-family="sans-serif" font-size="14" lengthAdjust="spacing" textLength="37.7686" x="762.5" y="664.8467">Label</text></g><!--class Model__class--><g id="elem_Model__class"><rect codeLine="125" fill="#F1F1F1" height="32" id="Model__class" rx="2.5" ry="2.5" style="stroke:#181818;stroke-width:0.5;" width="74.0342" x="381" y="894"/><ellipse cx="396" cy="910" fill="#ADD1B2" rx="11" ry="11" style="stroke:#181818;stroke-width:1;"/><path d="M398.9688,915.6406 Q398.3906,915.9375 397.75,916.0781 Q397.1094,916.2344 396.4063,916.2344 Q393.9063,916.2344 392.5781,914.5938 Q391.2656,912.9375 391.2656,909.8125 Q391.2656,906.6875 392.5781,905.0313 Q393.9063,903.375 396.4063,903.375 Q397.1094,903.375 397.75,903.5313 Q398.4063,903.6875 398.9688,903.9844 L398.9688,906.7031 Q398.3438,906.125 397.75,905.8594 Q397.1563,905.5781 396.5313,905.5781 Q395.1875,905.5781 394.5,906.6563 Q393.8125,907.7188 393.8125,909.8125 Q393.8125,911.9063 394.5,912.9844 Q395.1875,914.0469 396.5313,914.0469 Q397.1563,914.0469 397.75,913.7813 Q398.3438,913.5 398.9688,912.9219 L398.9688,915.6406 Z " fill="#000000"/><text fill="#000000" font-family="sans-serif" font-size="14" lengthAdjust="spacing" textLength="42.0342" x="410" y="914.8467">Model</text></g><!--class ParsedBodyResolver__class--><g id="elem_ParsedBodyResolver__class"><rect codeLine="129" fill="#F1F1F1" height="32" id="ParsedBodyResolver__class" rx="2.5" ry="2.5" style="stroke:#181818;stroke-width:0.5;" width="175.6572" x="680.5" y="544"/><ellipse cx="695.5" cy="560" fill="#ADD1B2" rx="11" ry="11" style="stroke:#181818;stroke-width:1;"/><path d="M698.4688,565.6406 Q697.8906,565.9375 697.25,566.0781 Q696.6094,566.2344 695.9063,566.2344 Q693.4063,566.2344 692.0781,564.5938 Q690.7656,562.9375 690.7656,559.8125 Q690.7656,556.6875 692.0781,555.0313 Q693.4063,553.375 695.9063,553.375 Q696.6094,553.375 697.25,553.5313 Q697.9063,553.6875 698.4688,553.9844 L698.4688,556.7031 Q697.8438,556.125 697.25,555.8594 Q696.6563,555.5781 696.0313,555.5781 Q694.6875,555.5781 694,556.6563 Q693.3125,557.7188 693.3125,559.8125 Q693.3125,561.9063 694,562.9844 Q694.6875,564.0469 696.0313,564.0469 Q696.6563,564.0469 697.25,563.7813 Q697.8438,563.5 698.4688,562.9219 L698.4688,565.6406 Z " fill="#000000"/><text fill="#000000" font-family="sans-serif" font-size="14" lengthAdjust="spacing" textLength="143.6572" x="709.5" y="564.8467">ParsedBodyResolver</text></g><!--class PrimaryKey__class--><g id="elem_PrimaryKey__class"><rect codeLine="133" fill="#F1F1F1" height="32" id="PrimaryKey__class" rx="2.5" ry="2.5" style="stroke:#181818;stroke-width:0.5;" width="112.4248" x="362" y="844"/><ellipse cx="377" cy="860" fill="#ADD1B2" rx="11" ry="11" style="stroke:#181818;stroke-width:1;"/><path d="M379.9688,865.6406 Q379.3906,865.9375 378.75,866.0781 Q378.1094,866.2344 377.4063,866.2344 Q374.9063,866.2344 373.5781,864.5938 Q372.2656,862.9375 372.2656,859.8125 Q372.2656,856.6875 373.5781,855.0313 Q374.9063,853.375 377.4063,853.375 Q378.1094,853.375 378.75,853.5313 Q379.4063,853.6875 379.9688,853.9844 L379.9688,856.7031 Q379.3438,856.125 378.75,855.8594 Q378.1563,855.5781 377.5313,855.5781 Q376.1875,855.5781 375.5,856.6563 Q374.8125,857.7188 374.8125,859.8125 Q374.8125,861.9063 375.5,862.9844 Q376.1875,864.0469 377.5313,864.0469 Q378.1563,864.0469 378.75,863.7813 Q379.3438,863.5 379.9688,862.9219 L379.9688,865.6406 Z " fill="#000000"/><text fill="#000000" font-family="sans-serif" font-size="14" lengthAdjust="spacing" textLength="80.4248" x="391" y="864.8467">PrimaryKey</text></g><!--class PropertyTypeNotDeclared__class--><g id="elem_PropertyTypeNotDeclared__class"><rect codeLine="137" fill="#F1F1F1" height="32" id="PropertyTypeNotDeclared__class" rx="2.5" ry="2.5" style="stroke:#181818;stroke-width:0.5;" width="213.4736" x="662" y="1044"/><ellipse cx="677" cy="1060" fill="#ADD1B2" rx="11" ry="11" style="stroke:#181818;stroke-width:1;"/><path d="M679.9688,1065.6406 Q679.3906,1065.9375 678.75,1066.0781 Q678.1094,1066.2344 677.4063,1066.2344 Q674.9063,1066.2344 673.5781,1064.5938 Q672.2656,1062.9375 672.2656,1059.8125 Q672.2656,1056.6875 673.5781,1055.0313 Q674.9063,1053.375 677.4063,1053.375 Q678.1094,1053.375 678.75,1053.5313 Q679.4063,1053.6875 679.9688,1053.9844 L679.9688,1056.7031 Q679.3438,1056.125 678.75,1055.8594 Q678.1563,1055.5781 677.5313,1055.5781 Q676.1875,1055.5781 675.5,1056.6563 Q674.8125,1057.7188 674.8125,1059.8125 Q674.8125,1061.9063 675.5,1062.9844 Q676.1875,1064.0469 677.5313,1064.0469 Q678.1563,1064.0469 678.75,1063.7813 Q679.3438,1063.5 679.9688,1062.9219 L679.9688,1065.6406 Z " fill="#000000"/><text fill="#000000" font-family="sans-serif" font-size="14" lengthAdjust="spacing" textLength="181.4736" x="691" y="1064.8467">PropertyTypeNotDeclared</text></g><!--class Size__class--><g id="elem_Size__class"><rect codeLine="141" fill="#F1F1F1" height="32" id="Size__class" rx="2.5" ry="2.5" style="stroke:#181818;stroke-width:0.5;" width="60.7383" x="738" y="994"/><ellipse cx="753" cy="1010" fill="#ADD1B2" rx="11" ry="11" style="stroke:#181818;stroke-width:1;"/><path d="M755.9688,1015.6406 Q755.3906,1015.9375 754.75,1016.0781 Q754.1094,1016.2344 753.4063,1016.2344 Q750.9063,1016.2344 749.5781,1014.5938 Q748.2656,1012.9375 748.2656,1009.8125 Q748.2656,1006.6875 749.5781,1005.0313 Q750.9063,1003.375 753.4063,1003.375 Q754.1094,1003.375 754.75,1003.5313 Q755.4063,1003.6875 755.9688,1003.9844 L755.9688,1006.7031 Q755.3438,1006.125 754.75,1005.8594 Q754.1563,1005.5781 753.5313,1005.5781 Q752.1875,1005.5781 751.5,1006.6563 Q750.8125,1007.7188 750.8125,1009.8125 Q750.8125,1011.9063 751.5,1012.9844 Q752.1875,1014.0469 753.5313,1014.0469 Q754.1563,1014.0469 754.75,1013.7813 Q755.3438,1013.5 755.9688,1012.9219 L755.9688,1015.6406 Z " fill="#000000"/><text fill="#000000" font-family="sans-serif" font-size="14" lengthAdjust="spacing" textLength="28.7383" x="767" y="1014.8467">Size</text></g><!--class SizeNotConfigured__class--><g id="elem_SizeNotConfigured__class"><rect codeLine="145" fill="#F1F1F1" height="32" id="SizeNotConfigured__class" rx="2.5" ry="2.5" style="stroke:#181818;stroke-width:0.5;" width="162.3135" x="687.5" y="944"/><ellipse cx="702.5" cy="960" fill="#ADD1B2" rx="11" ry="11" style="stroke:#181818;stroke-width:1;"/><path d="M705.4688,965.6406 Q704.8906,965.9375 704.25,966.0781 Q703.6094,966.2344 702.9063,966.2344 Q700.4063,966.2344 699.0781,964.5938 Q697.7656,962.9375 697.7656,959.8125 Q697.7656,956.6875 699.0781,955.0313 Q700.4063,953.375 702.9063,953.375 Q703.6094,953.375 704.25,953.5313 Q704.9063,953.6875 705.4688,953.9844 L705.4688,956.7031 Q704.8438,956.125 704.25,955.8594 Q703.6563,955.5781 703.0313,955.5781 Q701.6875,955.5781 701,956.6563 Q700.3125,957.7188 700.3125,959.8125 Q700.3125,961.9063 701,962.9844 Q701.6875,964.0469 703.0313,964.0469 Q703.6563,964.0469 704.25,963.7813 Q704.8438,963.5 705.4688,962.9219 L705.4688,965.6406 Z " fill="#000000"/><text fill="#000000" font-family="sans-serif" font-size="14" lengthAdjust="spacing" textLength="130.3135" x="716.5" y="964.8467">SizeNotConfigured</text></g><!--class ColumnConfig__enum--><g id="elem_ColumnConfig__enum"><rect codeLine="149" fill="#F1F1F1" height="32" id="ColumnConfig__enum" rx="2.5" ry="2.5" style="stroke:#181818;stroke-width:0.5;" width="130.5332" x="703" y="894"/><ellipse cx="718" cy="910" fill="#EB937F" rx="11" ry="11" style="stroke:#181818;stroke-width:1;"/><path d="M722.1094,916 L714.3906,916 L714.3906,903.6094 L722.1094,903.6094 L722.1094,905.7656 L716.8438,905.7656 L716.8438,908.4375 L721.6094,908.4375 L721.6094,910.5938 L716.8438,910.5938 L716.8438,913.8438 L722.1094,913.8438 L722.1094,916 Z " fill="#000000"/><text fill="#000000" font-family="sans-serif" font-size="14" lengthAdjust="spacing" textLength="98.5332" x="732" y="914.8467">ColumnConfig</text></g><!--class Formats__enum--><g id="elem_Formats__enum"><rect codeLine="153" fill="#F1F1F1" height="32" id="Formats__enum" rx="2.5" ry="2.5" style="stroke:#181818;stroke-width:0.5;" width="89.374" x="971" y="1044"/><ellipse cx="986" cy="1060" fill="#EB937F" rx="11" ry="11" style="stroke:#181818;stroke-width:1;"/><path d="M990.1094,1066 L982.3906,1066 L982.3906,1053.6094 L990.1094,1053.6094 L990.1094,1055.7656 L984.8438,1055.7656 L984.8438,1058.4375 L989.6094,1058.4375 L989.6094,1060.5938 L984.8438,1060.5938 L984.8438,1063.8438 L990.1094,1063.8438 L990.1094,1066 Z " fill="#000000"/><text fill="#000000" font-family="sans-serif" font-size="14" lengthAdjust="spacing" textLength="57.374" x="1000" y="1064.8467">Formats</text></g><!--class FormControlTypes__enum--><g id="elem_FormControlTypes__enum"><rect codeLine="157" fill="#F1F1F1" height="32" id="FormControlTypes__enum" rx="2.5" ry="2.5" style="stroke:#181818;stroke-width:0.5;" width="160.5566" x="935" y="994"/><ellipse cx="950" cy="1010" fill="#EB937F" rx="11" ry="11" style="stroke:#181818;stroke-width:1;"/><path d="M954.1094,1016 L946.3906,1016 L946.3906,1003.6094 L954.1094,1003.6094 L954.1094,1005.7656 L948.8438,1005.7656 L948.8438,1008.4375 L953.6094,1008.4375 L953.6094,1010.5938 L948.8438,1010.5938 L948.8438,1013.8438 L954.1094,1013.8438 L954.1094,1016 Z " fill="#000000"/><text fill="#000000" font-family="sans-serif" font-size="14" lengthAdjust="spacing" textLength="128.5566" x="964" y="1014.8467">FormControlTypes</text></g><!--class InputTypes__enum--><g id="elem_InputTypes__enum"><rect codeLine="161" fill="#F1F1F1" height="32" id="InputTypes__enum" rx="2.5" ry="2.5" style="stroke:#181818;stroke-width:0.5;" width="109.8818" x="960.5" y="944"/><ellipse cx="975.5" cy="960" fill="#EB937F" rx="11" ry="11" style="stroke:#181818;stroke-width:1;"/><path d="M979.6094,966 L971.8906,966 L971.8906,953.6094 L979.6094,953.6094 L979.6094,955.7656 L974.3438,955.7656 L974.3438,958.4375 L979.1094,958.4375 L979.1094,960.5938 L974.3438,960.5938 L974.3438,963.8438 L979.6094,963.8438 L979.6094,966 Z " fill="#000000"/><text fill="#000000" font-family="sans-serif" font-size="14" lengthAdjust="spacing" textLength="77.8818" x="989.5" y="964.8467">InputTypes</text></g><!--class LabelFormatConfig__enum--><g id="elem_LabelFormatConfig__enum"><rect codeLine="165" fill="#F1F1F1" height="32" id="LabelFormatConfig__enum" rx="2.5" ry="2.5" style="stroke:#181818;stroke-width:0.5;" width="164.7676" x="933" y="894"/><ellipse cx="948" cy="910" fill="#EB937F" rx="11" ry="11" style="stroke:#181818;stroke-width:1;"/><path d="M952.1094,916 L944.3906,916 L944.3906,903.6094 L952.1094,903.6094 L952.1094,905.7656 L946.8438,905.7656 L946.8438,908.4375 L951.6094,908.4375 L951.6094,910.5938 L946.8438,910.5938 L946.8438,913.8438 L952.1094,913.8438 L952.1094,916 Z " fill="#000000"/><text fill="#000000" font-family="sans-serif" font-size="14" lengthAdjust="spacing" textLength="132.7676" x="962" y="914.8467">LabelFormatConfig</text></g><!--class ModelResolverInterface__class--><g id="elem_ModelResolverInterface__class"><rect codeLine="71" fill="#F1F1F1" height="40.2656" id="ModelResolverInterface__class" rx="2.5" ry="2.5" style="stroke:#181818;stroke-width:0.5;" width="197.457" x="30" y="690"/><ellipse cx="45" cy="710.1328" fill="#ADD1B2" rx="11" ry="11" style="stroke:#181818;stroke-width:1;"/><path d="M47.9688,715.7734 Q47.3906,716.0703 46.75,716.2109 Q46.1094,716.3672 45.4063,716.3672 Q42.9063,716.3672 41.5781,714.7266 Q40.2656,713.0703 40.2656,709.9453 Q40.2656,706.8203 41.5781,705.1641 Q42.9063,703.5078 45.4063,703.5078 Q46.1094,703.5078 46.75,703.6641 Q47.4063,703.8203 47.9688,704.1172 L47.9688,706.8359 Q47.3438,706.2578 46.75,705.9922 Q46.1563,705.7109 45.5313,705.7109 Q44.1875,705.7109 43.5,706.7891 Q42.8125,707.8516 42.8125,709.9453 Q42.8125,712.0391 43.5,713.1172 Q44.1875,714.1797 45.5313,714.1797 Q46.1563,714.1797 46.75,713.9141 Q47.3438,713.6328 47.9688,713.0547 L47.9688,715.7734 Z " fill="#000000"/><text fill="#000000" font-family="sans-serif" font-size="12" font-style="italic" lengthAdjust="spacing" textLength="64.4824" x="109.4873" y="706.1387">&#171;external&#187;</text><text fill="#000000" font-family="sans-serif" font-size="14" lengthAdjust="spacing" textLength="165.457" x="59" y="721.9639">ModelResolverInterface</text></g><polygon fill="#516F42" points="497.5949,140.3577,505.7974,145.8092,502.5242,141.1955,507.1379,137.9223,497.5949,140.3577" style="stroke:#516F42;stroke-width:1;"/><path d="M503.5101,141.363 C528.2682,145.5711 549.1752,151.5215 572,163 C661.1741,207.8454 732.3714,310.1254 757.616,349.8264 " fill="transparent" style="stroke:#516F42;stroke-width:1;"/><text fill="#000000" font-family="sans-serif" font-size="13" lengthAdjust="spacing" textLength="29.7832" x="592" y="170.0669">uses</text><polygon fill="#516F42" points="518.1032,204.0176,526.014,209.8845,522.9828,205.1083,527.759,202.0771,518.1032,204.0176" style="stroke:#516F42;stroke-width:1;"/><path d="M523.9587,205.3264 C542.3262,209.4317 555.1597,213.6258 572,221 C646.7083,253.7142 719.8877,319.5159 751.3812,349.9214 " fill="transparent" style="stroke:#516F42;stroke-width:1;"/><text fill="#000000" font-family="sans-serif" font-size="13" lengthAdjust="spacing" textLength="29.7832" x="592" y="228.0669">uses</text><polygon fill="#516F42" points="538.6871,269.9095,546.5077,275.896,543.5496,271.0743,548.3713,268.1161,538.6871,269.9095" style="stroke:#516F42;stroke-width:1;"/><path d="M544.5221,271.3072 C555.869,274.0253 561.2914,275.6521 572,279 C632.6325,297.9559 699.4924,330.4058 737.2071,349.8647 " fill="transparent" style="stroke:#516F42;stroke-width:1;"/><text fill="#000000" font-family="sans-serif" font-size="13" lengthAdjust="spacing" textLength="29.7832" x="592" y="282.0669">uses</text><polygon fill="#516F42" points="515.1517,324.0023,523.3729,329.4255,520.0838,324.8231,524.6863,321.5341,515.1517,324.0023" style="stroke:#516F42;stroke-width:1;"/><path d="M521.0703,324.9873 C580.5047,334.8788 649.3047,346.329 701.9642,355.093 " fill="transparent" style="stroke:#516F42;stroke-width:1;"/><text fill="#000000" font-family="sans-serif" font-size="13" lengthAdjust="spacing" textLength="29.7832" x="592" y="332.0669">uses</text><polygon fill="#516F42" points="537.9592,366,546.9592,370,542.9592,366,546.9592,362,537.9592,366" style="stroke:#516F42;stroke-width:1;"/><path d="M543.9592,366 C598.7761,366 655.7374,366 701.8379,366 " fill="transparent" style="stroke:#516F42;stroke-width:1;"/><text fill="#000000" font-family="sans-serif" font-size="13" lengthAdjust="spacing" textLength="29.7832" x="592" y="361.0669">uses</text><polygon fill="#516F42" points="539.4219,403.9585,548.9565,406.4267,544.3541,403.1376,547.6431,398.5352,539.4219,403.9585" style="stroke:#516F42;stroke-width:1;"/><path d="M545.3405,402.9735 C599.8383,393.9035 656.2072,384.5222 701.9042,376.9169 " fill="transparent" style="stroke:#516F42;stroke-width:1;"/><text fill="#000000" font-family="sans-serif" font-size="13" lengthAdjust="spacing" textLength="29.7832" x="592" y="387.0669">uses</text><polygon fill="#516F42" points="494.1708,471.3215,503.7361,473.6678,499.0921,470.4378,502.3222,465.7938,494.1708,471.3215" style="stroke:#516F42;stroke-width:1;"/><path d="M500.0764,470.261 C525.1367,465.7609 547.0994,460.7849 572,453 C632.6325,434.0441 699.4924,401.5942 737.2071,382.1353 " fill="transparent" style="stroke:#516F42;stroke-width:1;"/><text fill="#000000" font-family="sans-serif" font-size="13" lengthAdjust="spacing" textLength="29.7832" x="592" y="431.0669">uses</text><polygon fill="#516F42" points="490.6786,533.2135,500.1992,535.735,495.6153,532.4203,498.93,527.8363,490.6786,533.2135" style="stroke:#516F42;stroke-width:1;"/><path d="M496.6026,532.2616 C522.9549,528.0272 546.6157,522.1156 572,511 C646.7083,478.2858 719.8877,412.4841 751.3812,382.0786 " fill="transparent" style="stroke:#516F42;stroke-width:1;"/><text fill="#000000" font-family="sans-serif" font-size="13" lengthAdjust="spacing" textLength="29.7832" x="592" y="482.0669">uses</text><polygon fill="#516F42" points="512.2543,588.6958,521.8859,590.753,517.1468,587.6642,520.2355,582.9251,512.2543,588.6958" style="stroke:#516F42;stroke-width:1;"/><path d="M518.1253,587.4579 C538.5035,583.1613 553.5944,578.133 572,569 C661.4129,524.6327 732.4684,422.0688 757.6455,382.2328 " fill="transparent" style="stroke:#516F42;stroke-width:1;"/><text fill="#000000" font-family="sans-serif" font-size="13" lengthAdjust="spacing" textLength="29.7832" x="592" y="536.0669">uses</text><polygon fill="#516F42" points="485.0871,651.2716,494.558,653.974,490.038,650.5725,493.4394,646.0525,485.0871,651.2716" style="stroke:#516F42;stroke-width:1;"/><path d="M491.0282,650.4327 C518.9337,646.4922 545.1672,640.1326 572,627 C599.1513,613.7115 605.7627,606.8325 623,582 C635.7551,563.6246 630.1946,554.5854 641,535 C674.4605,474.3507 727.4645,411.1389 752.9168,382.2057 " fill="transparent" style="stroke:#516F42;stroke-width:1;"/><text fill="#000000" font-family="sans-serif" font-size="13" lengthAdjust="spacing" textLength="29.7832" x="592" y="577.0669">uses</text><polygon fill="transparent" points="497.3141,48.1156,512.7857,59.0987,516.2813,47.6191,497.3141,48.1156" style="stroke:#516F42;stroke-width:1;"/><path d="M514.5335,53.3589 C539.9535,61.0993 550.0228,67.0427 572,83 C673.958,157.0302 740.6549,301.2785 760.9526,349.7033 " fill="transparent" style="stroke:#516F42;stroke-width:1;stroke-dasharray:7.0,7.0;"/><polygon fill="transparent" points="227.2356,710,245.2356,716,245.2356,704,227.2356,710" style="stroke:#516F42;stroke-width:1;"/><path d="M245.2356,710 C275.5139,710 290.8369,710 320.9966,710 " fill="transparent" style="stroke:#516F42;stroke-width:1;stroke-dasharray:7.0,7.0;"/><polygon fill="transparent" points="530.7056,826.0266,547.671,834.5221,549.3752,822.6438,530.7056,826.0266" style="stroke:#516F42;stroke-width:1;"/><path d="M548.5231,828.5829 C588.5405,834.3243 615.8146,838.2374 655.8291,843.9784 " fill="transparent" style="stroke:#516F42;stroke-width:1;stroke-dasharray:7.0,7.0;"/><polygon fill="transparent" points="530.7056,776.0266,547.671,784.5221,549.3752,772.6438,530.7056,776.0266" style="stroke:#516F42;stroke-width:1;"/><path d="M548.5231,778.5829 C614.8206,788.0948 677.2279,797.0485 725.2194,803.9339 " fill="transparent" style="stroke:#516F42;stroke-width:1;"/><polygon fill="transparent" points="546.2958,760,564.2958,766,564.2958,754,546.2958,760" style="stroke:#516F42;stroke-width:1;"/><path d="M564.2958,760 C608.5311,760 639.1291,760 679.4792,760 " fill="transparent" style="stroke:#516F42;stroke-width:1;"/><polygon fill="transparent" points="530.7056,743.9734,549.3752,747.3562,547.671,735.4779,530.7056,743.9734" style="stroke:#516F42;stroke-width:1;"/><path d="M548.5231,741.4171 C597.8978,734.3332 637.1797,728.6973 682.9364,722.1325 " fill="transparent" style="stroke:#516F42;stroke-width:1;"/><polygon fill="transparent" points="208.8217,1103.4459,227.6678,1105.6421,225.2163,1093.8952,208.8217,1103.4459" style="stroke:#516F42;stroke-width:1;"/><path d="M226.4421,1099.7686 C267.3291,1091.2357 299.3639,1084.5501 339.9228,1076.0857 " fill="transparent" style="stroke:#516F42;stroke-width:1;"/><polygon fill="transparent" points="515.1142,716.1217,533.4588,720.9667,532.6969,708.9909,515.1142,716.1217" style="stroke:#516F42;stroke-width:1;"/><path d="M533.0779,714.9788 C570.1977,712.617 592.916,704.8102 623,681 C640.2147,667.3754 624.1588,649.0836 641,635 C659.3752,619.6336 684.4892,612.7451 707.4986,609.932 " fill="transparent" style="stroke:#516F42;stroke-width:1;"/><polygon fill="transparent" points="544.6046,743.988,563.549,745.041,560.3919,733.4637,544.6046,743.988" style="stroke:#516F42;stroke-width:1;"/><path d="M561.9705,739.2524 C571.3717,736.6887 563.2344,738.4502 572,735 C597.349,725.0224 601.4344,717.6448 623,701 C631.4733,694.4601 631.4132,689.7603 641,685 C670.1739,670.5139 707.0489,664.4186 733.4469,661.8556 " fill="transparent" style="stroke:#516F42;stroke-width:1;"/><polygon fill="transparent" points="515.3007,697.9632,534.0775,700.6893,531.9579,688.878,515.3007,697.9632" style="stroke:#516F42;stroke-width:1;"/><path d="M533.0177,694.7837 C552.0015,691.3769 553.9176,690.2901 572,685 C595.6926,678.0686 607.1884,681.9572 623,663 C645.7881,635.6782 615.4473,609.7556 641,585 C651.853,574.4856 665.7773,567.7778 680.3989,563.6002 " fill="transparent" style="stroke:#516F42;stroke-width:1;"/><!--SRC=[nLZVJzim47xFN-65bqqQ4fks8Kq82IXeR0DLKEqfKcIQQshXs97j01tYVv-JD4sSNqrRJ-qBoTtb-pwVxVEPTx70OOGHnGkUA2GZK9XX1o4a7mcBiS0HEXE2FrzmoWKw-Fhfs-pBPzEFfuey4RKuvo80CIGGJnz3mHCMB8DdsQyzU4Hmn5am6Bo87y8XvpZWpuI5Q8Qf1CVfTfKUIXYeHGo82pNdpfm4W22ArG9543s0a0w5cKAA8q72kK814Q2rSUP8K8ZX26ICft0FAPpIqZpFSGXJ86RQZDnh_PJQpy9GG8WLk0XBrB3w_fHYAT792O8NxMIOejFJL-VDML6WyJpc50lFk-41KFIQZXxbdxawBKd4RdNiH62YN9Ior8o-hz8_ASVxoSU3gwlZuwEZ3oZpQR8buDjWpX5MUA9JDmALfwH2tUwphU2IARr6qW5US3OZOQAJQkheYx2jvee03IxrzX8t82KEgrFHxhEkW8leciM9wfgMde3_eKNdN0bE-zHqXjZMyni_04qPiQf8g5jjiuu5YR1O_895XRHcjCrvJ_vsxeTsdsq5Vp0bGPswPXpEwNacb-Tr5RR3GzGCFdkGsZrLsMjHPx-ZH89iWLvJk2mm32f95dZMb1mR30EgYIMQzMN20b5dCR20tRNdBK2lsTCM6BgsxiRGQye7NdwwAYG6LjOvjQBh7ubY2X4m9RMaplPgVI6x0ydf4mYpe1ckwwAxomIrkxhwkO5rj3yH1Lip8OMdAp7jOwszDWQnk-onu368lEfTlcGcRiflZQWCOx26IkzTOEhbc-WENQdwtFK5-7w9P3436LL_2ioGOLEP5fXXOnay5FDguPONYb9HkhHP87kAGF-qRgnb13ESK5MU_vciXdN_2Yj7ILLYnRn7ZMK7ufftf6tsMm7wWmG1vCiaVsm5MmRV9Pep7SiKulHOoJwh6xU-4nUIhjbJUd2jMfGBBDM4toj1M6XI3uficx4kpPldxwVap2ZiLSCcYwNz8DXOJxPKtTKTQO_BjJpywuV-nb1ZB2G4vpnO6AbkclUGyB93TCrBuau3Nav5kgXlkHg1jWi8ZDElvjk5Bcr5tUAUkIkGrbIqjKl53Uis5C2Ig3ZLSgJAsPORV3yBsX0oh-lIBVwreP-t1wfSU4h4gd4xw5M5aykwLxnk1rSvpogfR5WRuFy0]--></g></svg>