<svg xmlns="http://www.w3.org/2000/svg" xmlns:xlink="http://www.w3.org/1999/xlink" contentStyleType="text/css" data-diagram-type="CLASS" height="991px" preserveAspectRatio="none" style="width:1006px;height:991px;background:#FFFFFF;" version="1.1" viewBox="0 0 1006 991" width="1006px" zoomAndPan="magnify"><defs/><g><!--cluster Phpolar--><g id="cluster_Phpolar"><path d="M16.5,52 L78.5176,52 A3.75,3.75 0 0 1 81.0176,54.5 L88.0176,74.2969 L996.5,74.2969 A2.5,2.5 0 0 1 999,76.7969 L999,981.5 A2.5,2.5 0 0 1 996.5,984 L16.5,984 A2.5,2.5 0 0 1 14,981.5 L14,54.5 A2.5,2.5 0 0 1 16.5,52 " fill="transparent" style="stroke:#000000;stroke-width:1.5;"/><line style="stroke:#000000;stroke-width:1.5;" x1="14" x2="88.0176" y1="74.2969" y2="74.2969"/><text fill="#000000" font-family="sans-serif" font-size="14" font-weight="bold" lengthAdjust="spacing" textLength="61.0176" x="18" y="66.9951">Phpolar</text></g><!--cluster Model--><g id="cluster_Model"><path d="M331.5,79 L380.3652,79 A3.75,3.75 0 0 1 382.8652,81.5 L389.8652,101.2969 L988.5,101.2969 A2.5,2.5 0 0 1 991,103.7969 L991,973.5 A2.5,2.5 0 0 1 988.5,976 L331.5,976 A2.5,2.5 0 0 1 329,973.5 L329,81.5 A2.5,2.5 0 0 1 331.5,79 " fill="transparent" style="stroke:#000000;stroke-width:1.5;"/><line style="stroke:#000000;stroke-width:1.5;" x1="329" x2="389.8652" y1="101.2969" y2="101.2969"/><text fill="#000000" font-family="sans-serif" font-size="14" font-weight="bold" lengthAdjust="spacing" textLength="47.8652" x="333" y="93.9951">Model</text></g><!--cluster ModelResolver--><g id="cluster_ModelResolver"><path d="M62,655 L179.416,655 A3.75,3.75 0 0 1 181.916,657.5 L188.916,677.2969 L270,677.2969 A2.5,2.5 0 0 1 272.5,679.7969 L272.5,727.5 A2.5,2.5 0 0 1 270,730 L62,730 A2.5,2.5 0 0 1 59.5,727.5 L59.5,657.5 A2.5,2.5 0 0 1 62,655 " fill="transparent" style="stroke:#000000;stroke-width:1.5;"/><line style="stroke:#000000;stroke-width:1.5;" x1="59.5" x2="188.916" y1="677.2969" y2="677.2969"/><text fill="#000000" font-family="sans-serif" font-size="14" font-weight="bold" lengthAdjust="spacing" textLength="116.416" x="63.5" y="669.9951">ModelResolver</text></g><!--cluster Phpolar--><g id="cluster_Phpolar"><path d="M24.5,773 L86.5176,773 A3.75,3.75 0 0 1 89.0176,775.5 L96.0176,795.2969 L307.5,795.2969 A2.5,2.5 0 0 1 310,797.7969 L310,880.5 A2.5,2.5 0 0 1 307.5,883 L24.5,883 A2.5,2.5 0 0 1 22,880.5 L22,775.5 A2.5,2.5 0 0 1 24.5,773 " fill="transparent" style="stroke:#000000;stroke-width:1.5;"/><line style="stroke:#000000;stroke-width:1.5;" x1="22" x2="96.0176" y1="795.2969" y2="795.2969"/><text fill="#000000" font-family="sans-serif" font-size="14" font-weight="bold" lengthAdjust="spacing" textLength="61.0176" x="26" y="787.9951">Phpolar</text></g><!--cluster Core--><g id="cluster_Core"><path d="M32.5,800 L69.792,800 A3.75,3.75 0 0 1 72.292,802.5 L79.292,822.2969 L299.5,822.2969 A2.5,2.5 0 0 1 302,824.7969 L302,872.5 A2.5,2.5 0 0 1 299.5,875 L32.5,875 A2.5,2.5 0 0 1 30,872.5 L30,802.5 A2.5,2.5 0 0 1 32.5,800 " fill="transparent" style="stroke:#000000;stroke-width:1.5;"/><line style="stroke:#000000;stroke-width:1.5;" x1="30" x2="79.292" y1="822.2969" y2="822.2969"/><text fill="#000000" font-family="sans-serif" font-size="14" font-weight="bold" lengthAdjust="spacing" textLength="36.292" x="34" y="814.9951">Core</text></g><!--class IteratorAggregate__class--><g id="elem_IteratorAggregate__class"><rect codeLine="14" fill="#F1F1F1" height="40.2656" id="IteratorAggregate__class" rx="2.5" ry="2.5" style="stroke:#181818;stroke-width:0.5;" width="157.665" x="385" y="4"/><ellipse cx="400" cy="24.1328" fill="#B4A7E5" rx="11" ry="11" style="stroke:#181818;stroke-width:1;"/><path d="M395.9219,19.8984 L395.9219,17.7422 L403.3125,17.7422 L403.3125,19.8984 L400.8438,19.8984 L400.8438,27.9766 L403.3125,27.9766 L403.3125,30.1328 L395.9219,30.1328 L395.9219,27.9766 L398.3906,27.9766 L398.3906,19.8984 L395.9219,19.8984 Z " fill="#000000"/><text fill="#000000" font-family="sans-serif" font-size="12" font-style="italic" lengthAdjust="spacing" textLength="64.4824" x="444.5913" y="20.1387">&#171;external&#187;</text><text fill="#000000" font-family="sans-serif" font-size="14" font-style="italic" lengthAdjust="spacing" textLength="125.665" x="414" y="35.9639">IteratorAggregate</text></g><!--class ColumnNameTrait__trait--><g id="elem_ColumnNameTrait__trait"><rect codeLine="17" fill="#F1F1F1" height="40.2656" id="ColumnNameTrait__trait" rx="2.5" ry="2.5" style="stroke:#181818;stroke-width:0.5;" width="159.1826" x="384.5" y="106"/><ellipse cx="399.5" cy="126.1328" fill="#FF7700" rx="11" ry="11" style="stroke:#181818;stroke-width:1;"/><path d="M400.3438,132.8828 L397.8906,132.8828 L397.8906,122.6328 L394.75,122.6328 L394.75,120.4922 L403.4844,120.4922 L403.4844,122.6328 L400.3438,122.6328 L400.3438,132.8828 Z " fill="#000000"/><text fill="#000000" font-family="sans-serif" font-size="12" font-style="italic" lengthAdjust="spacing" textLength="42.3398" x="455.9214" y="122.1387">&#171;Trait&#187;</text><text fill="#000000" font-family="sans-serif" font-size="14" lengthAdjust="spacing" textLength="127.1826" x="413.5" y="137.9639">ColumnNameTrait</text></g><!--class DataTypeDetectionTrait__trait--><g id="elem_DataTypeDetectionTrait__trait"><rect codeLine="21" fill="#F1F1F1" height="40.2656" id="DataTypeDetectionTrait__trait" rx="2.5" ry="2.5" style="stroke:#181818;stroke-width:0.5;" width="200.041" x="364" y="164"/><ellipse cx="379" cy="184.1328" fill="#FF7700" rx="11" ry="11" style="stroke:#181818;stroke-width:1;"/><path d="M379.8438,190.8828 L377.3906,190.8828 L377.3906,180.6328 L374.25,180.6328 L374.25,178.4922 L382.9844,178.4922 L382.9844,180.6328 L379.8438,180.6328 L379.8438,190.8828 Z " fill="#000000"/><text fill="#000000" font-family="sans-serif" font-size="12" font-style="italic" lengthAdjust="spacing" textLength="42.3398" x="455.8506" y="180.1387">&#171;Trait&#187;</text><text fill="#000000" font-family="sans-serif" font-size="14" lengthAdjust="spacing" textLength="168.041" x="393" y="195.9639">DataTypeDetectionTrait</text></g><!--class EntityNameConfigurationTrait__trait--><g id="elem_EntityNameConfigurationTrait__trait"><rect codeLine="25" fill="#F1F1F1" height="40.2656" id="EntityNameConfigurationTrait__trait" rx="2.5" ry="2.5" style="stroke:#181818;stroke-width:0.5;" width="241.3848" x="343.5" y="222"/><ellipse cx="358.5" cy="242.1328" fill="#FF7700" rx="11" ry="11" style="stroke:#181818;stroke-width:1;"/><path d="M359.3438,248.8828 L356.8906,248.8828 L356.8906,238.6328 L353.75,238.6328 L353.75,236.4922 L362.4844,236.4922 L362.4844,238.6328 L359.3438,238.6328 L359.3438,248.8828 Z " fill="#000000"/><text fill="#000000" font-family="sans-serif" font-size="12" font-style="italic" lengthAdjust="spacing" textLength="42.3398" x="456.0225" y="238.1387">&#171;Trait&#187;</text><text fill="#000000" font-family="sans-serif" font-size="14" lengthAdjust="spacing" textLength="209.3848" x="372.5" y="253.9639">EntityNameConfigurationTrait</text></g><!--class FieldErrorMessageTrait__trait--><g id="elem_FieldErrorMessageTrait__trait"><rect codeLine="29" fill="#F1F1F1" height="40.2656" id="FieldErrorMessageTrait__trait" rx="2.5" ry="2.5" style="stroke:#181818;stroke-width:0.5;" width="193.6357" x="367" y="280"/><ellipse cx="382" cy="300.1328" fill="#FF7700" rx="11" ry="11" style="stroke:#181818;stroke-width:1;"/><path d="M382.8438,306.8828 L380.3906,306.8828 L380.3906,296.6328 L377.25,296.6328 L377.25,294.4922 L385.9844,294.4922 L385.9844,296.6328 L382.8438,296.6328 L382.8438,306.8828 Z " fill="#000000"/><text fill="#000000" font-family="sans-serif" font-size="12" font-style="italic" lengthAdjust="spacing" textLength="42.3398" x="455.6479" y="296.1387">&#171;Trait&#187;</text><text fill="#000000" font-family="sans-serif" font-size="14" lengthAdjust="spacing" textLength="161.6357" x="396" y="311.9639">FieldErrorMessageTrait</text></g><!--class FormInputTypeDetectionTrait__trait--><g id="elem_FormInputTypeDetectionTrait__trait"><rect codeLine="33" fill="#F1F1F1" height="40.2656" id="FormInputTypeDetectionTrait__trait" rx="2.5" ry="2.5" style="stroke:#181818;stroke-width:0.5;" width="238.876" x="344.5" y="338"/><ellipse cx="359.5" cy="358.1328" fill="#FF7700" rx="11" ry="11" style="stroke:#181818;stroke-width:1;"/><path d="M360.3438,364.8828 L357.8906,364.8828 L357.8906,354.6328 L354.75,354.6328 L354.75,352.4922 L363.4844,352.4922 L363.4844,354.6328 L360.3438,354.6328 L360.3438,364.8828 Z " fill="#000000"/><text fill="#000000" font-family="sans-serif" font-size="12" font-style="italic" lengthAdjust="spacing" textLength="42.3398" x="455.7681" y="354.1387">&#171;Trait&#187;</text><text fill="#000000" font-family="sans-serif" font-size="14" lengthAdjust="spacing" textLength="206.876" x="373.5" y="369.9639">FormInputTypeDetectionTrait</text></g><!--class FormControlTypeDetectionTrait__trait--><g id="elem_FormControlTypeDetectionTrait__trait"><rect codeLine="37" fill="#F1F1F1" height="40.2656" id="FormControlTypeDetectionTrait__trait" rx="2.5" ry="2.5" style="stroke:#181818;stroke-width:0.5;" width="253.5391" x="337" y="396"/><ellipse cx="352" cy="416.1328" fill="#FF7700" rx="11" ry="11" style="stroke:#181818;stroke-width:1;"/><path d="M352.8438,422.8828 L350.3906,422.8828 L350.3906,412.6328 L347.25,412.6328 L347.25,410.4922 L355.9844,410.4922 L355.9844,412.6328 L352.8438,412.6328 L352.8438,422.8828 Z " fill="#000000"/><text fill="#000000" font-family="sans-serif" font-size="12" font-style="italic" lengthAdjust="spacing" textLength="42.3398" x="455.5996" y="412.1387">&#171;Trait&#187;</text><text fill="#000000" font-family="sans-serif" font-size="14" lengthAdjust="spacing" textLength="221.5391" x="366" y="427.9639">FormControlTypeDetectionTrait</text></g><!--class LabelFormatTrait__trait--><g id="elem_LabelFormatTrait__trait"><rect codeLine="41" fill="#F1F1F1" height="40.2656" id="LabelFormatTrait__trait" rx="2.5" ry="2.5" style="stroke:#181818;stroke-width:0.5;" width="152.1143" x="388" y="454"/><ellipse cx="403" cy="474.1328" fill="#FF7700" rx="11" ry="11" style="stroke:#181818;stroke-width:1;"/><path d="M403.8438,480.8828 L401.3906,480.8828 L401.3906,470.6328 L398.25,470.6328 L398.25,468.4922 L406.9844,468.4922 L406.9844,470.6328 L403.8438,470.6328 L403.8438,480.8828 Z " fill="#000000"/><text fill="#000000" font-family="sans-serif" font-size="12" font-style="italic" lengthAdjust="spacing" textLength="42.3398" x="455.8872" y="470.1387">&#171;Trait&#187;</text><text fill="#000000" font-family="sans-serif" font-size="14" lengthAdjust="spacing" textLength="120.1143" x="417" y="485.9639">LabelFormatTrait</text></g><!--class PrimaryKeyTrait__trait--><g id="elem_PrimaryKeyTrait__trait"><rect codeLine="45" fill="#F1F1F1" height="40.2656" id="PrimaryKeyTrait__trait" rx="2.5" ry="2.5" style="stroke:#181818;stroke-width:0.5;" width="144.6904" x="391.5" y="512"/><ellipse cx="406.5" cy="532.1328" fill="#FF7700" rx="11" ry="11" style="stroke:#181818;stroke-width:1;"/><path d="M407.3438,538.8828 L404.8906,538.8828 L404.8906,528.6328 L401.75,528.6328 L401.75,526.4922 L410.4844,526.4922 L410.4844,528.6328 L407.3438,528.6328 L407.3438,538.8828 Z " fill="#000000"/><text fill="#000000" font-family="sans-serif" font-size="12" font-style="italic" lengthAdjust="spacing" textLength="42.3398" x="455.6753" y="528.1387">&#171;Trait&#187;</text><text fill="#000000" font-family="sans-serif" font-size="14" lengthAdjust="spacing" textLength="112.6904" x="420.5" y="543.9639">PrimaryKeyTrait</text></g><!--class SizeConfigurationTrait__trait--><g id="elem_SizeConfigurationTrait__trait"><rect codeLine="49" fill="#F1F1F1" height="40.2656" id="SizeConfigurationTrait__trait" rx="2.5" ry="2.5" style="stroke:#181818;stroke-width:0.5;" width="187.9482" x="370" y="570"/><ellipse cx="385" cy="590.1328" fill="#FF7700" rx="11" ry="11" style="stroke:#181818;stroke-width:1;"/><path d="M385.8438,596.8828 L383.3906,596.8828 L383.3906,586.6328 L380.25,586.6328 L380.25,584.4922 L388.9844,584.4922 L388.9844,586.6328 L385.8438,586.6328 L385.8438,596.8828 Z " fill="#000000"/><text fill="#000000" font-family="sans-serif" font-size="12" font-style="italic" lengthAdjust="spacing" textLength="42.3398" x="455.8042" y="586.1387">&#171;Trait&#187;</text><text fill="#000000" font-family="sans-serif" font-size="14" lengthAdjust="spacing" textLength="155.9482" x="399" y="601.9639">SizeConfigurationTrait</text></g><!--class ValidationTrait__trait--><g id="elem_ValidationTrait__trait"><rect codeLine="53" fill="#F1F1F1" height="40.2656" id="ValidationTrait__trait" rx="2.5" ry="2.5" style="stroke:#181818;stroke-width:0.5;" width="134.4844" x="397" y="628"/><ellipse cx="412" cy="648.1328" fill="#FF7700" rx="11" ry="11" style="stroke:#181818;stroke-width:1;"/><path d="M412.8438,654.8828 L410.3906,654.8828 L410.3906,644.6328 L407.25,644.6328 L407.25,642.4922 L415.9844,642.4922 L415.9844,644.6328 L412.8438,644.6328 L412.8438,654.8828 Z " fill="#000000"/><text fill="#000000" font-family="sans-serif" font-size="12" font-style="italic" lengthAdjust="spacing" textLength="42.3398" x="456.0723" y="644.1387">&#171;Trait&#187;</text><text fill="#000000" font-family="sans-serif" font-size="14" lengthAdjust="spacing" textLength="102.4844" x="426" y="659.9639">ValidationTrait</text></g><!--class AbstractModel__class--><g id="elem_AbstractModel__class"><rect codeLine="67" fill="#F1F1F1" height="32" id="AbstractModel__class" rx="2.5" ry="2.5" style="stroke:#181818;stroke-width:0.5;" width="132.8027" x="681.5" y="342"/><ellipse cx="696.5" cy="358" fill="#A9DCDF" rx="11" ry="11" style="stroke:#181818;stroke-width:1;"/><path d="M696.6094,353.3438 L695.4531,358.4219 L697.7813,358.4219 L696.6094,353.3438 Z M695.125,351.1094 L698.1094,351.1094 L701.4688,363.5 L699.0156,363.5 L698.25,360.4375 L694.9688,360.4375 L694.2188,363.5 L691.7813,363.5 L695.125,351.1094 Z " fill="#000000"/><text fill="#000000" font-family="sans-serif" font-size="14" font-style="italic" lengthAdjust="spacing" textLength="100.8027" x="710.5" y="362.8467">AbstractModel</text></g><!--class AbstractModelResolver__class--><g id="elem_AbstractModelResolver__class"><rect codeLine="75" fill="#F1F1F1" height="32" id="AbstractModelResolver__class" rx="2.5" ry="2.5" style="stroke:#181818;stroke-width:0.5;" width="193.5469" x="367" y="686"/><ellipse cx="382" cy="702" fill="#A9DCDF" rx="11" ry="11" style="stroke:#181818;stroke-width:1;"/><path d="M382.1094,697.3438 L380.9531,702.4219 L383.2813,702.4219 L382.1094,697.3438 Z M380.625,695.1094 L383.6094,695.1094 L386.9688,707.5 L384.5156,707.5 L383.75,704.4375 L380.4688,704.4375 L379.7188,707.5 L377.2813,707.5 L380.625,695.1094 Z " fill="#000000"/><text fill="#000000" font-family="sans-serif" font-size="14" font-style="italic" lengthAdjust="spacing" textLength="161.5469" x="396" y="706.8467">AbstractModelResolver</text></g><!--class Column__class--><g id="elem_Column__class"><rect codeLine="83" fill="#F1F1F1" height="32" id="Column__class" rx="2.5" ry="2.5" style="stroke:#181818;stroke-width:0.5;" width="85.6143" x="421" y="936"/><ellipse cx="436" cy="952" fill="#ADD1B2" rx="11" ry="11" style="stroke:#181818;stroke-width:1;"/><path d="M438.9688,957.6406 Q438.3906,957.9375 437.75,958.0781 Q437.1094,958.2344 436.4063,958.2344 Q433.9063,958.2344 432.5781,956.5938 Q431.2656,954.9375 431.2656,951.8125 Q431.2656,948.6875 432.5781,947.0313 Q433.9063,945.375 436.4063,945.375 Q437.1094,945.375 437.75,945.5313 Q438.4063,945.6875 438.9688,945.9844 L438.9688,948.7031 Q438.3438,948.125 437.75,947.8594 Q437.1563,947.5781 436.5313,947.5781 Q435.1875,947.5781 434.5,948.6563 Q433.8125,949.7188 433.8125,951.8125 Q433.8125,953.9063 434.5,954.9844 Q435.1875,956.0469 436.5313,956.0469 Q437.1563,956.0469 437.75,955.7813 Q438.3438,955.5 438.9688,954.9219 L438.9688,957.6406 Z " fill="#000000"/><text fill="#000000" font-family="sans-serif" font-size="14" lengthAdjust="spacing" textLength="53.6143" x="450" y="956.8467">Column</text></g><!--class EntityName__class--><g id="elem_EntityName__class"><rect codeLine="87" fill="#F1F1F1" height="32" id="EntityName__class" rx="2.5" ry="2.5" style="stroke:#181818;stroke-width:0.5;" width="114.1748" x="407" y="886"/><ellipse cx="422" cy="902" fill="#ADD1B2" rx="11" ry="11" style="stroke:#181818;stroke-width:1;"/><path d="M424.9688,907.6406 Q424.3906,907.9375 423.75,908.0781 Q423.1094,908.2344 422.4063,908.2344 Q419.9063,908.2344 418.5781,906.5938 Q417.2656,904.9375 417.2656,901.8125 Q417.2656,898.6875 418.5781,897.0313 Q419.9063,895.375 422.4063,895.375 Q423.1094,895.375 423.75,895.5313 Q424.4063,895.6875 424.9688,895.9844 L424.9688,898.7031 Q424.3438,898.125 423.75,897.8594 Q423.1563,897.5781 422.5313,897.5781 Q421.1875,897.5781 420.5,898.6563 Q419.8125,899.7188 419.8125,901.8125 Q419.8125,903.9063 420.5,904.9844 Q421.1875,906.0469 422.5313,906.0469 Q423.1563,906.0469 423.75,905.7813 Q424.3438,905.5 424.9688,904.9219 L424.9688,907.6406 Z " fill="#000000"/><text fill="#000000" font-family="sans-serif" font-size="14" lengthAdjust="spacing" textLength="82.1748" x="436" y="906.8467">EntityName</text></g><!--class Hidden__class--><g id="elem_Hidden__class"><rect codeLine="91" fill="#F1F1F1" height="32" id="Hidden__class" rx="2.5" ry="2.5" style="stroke:#181818;stroke-width:0.5;" width="81.6768" x="423" y="836"/><ellipse cx="438" cy="852" fill="#ADD1B2" rx="11" ry="11" style="stroke:#181818;stroke-width:1;"/><path d="M440.9688,857.6406 Q440.3906,857.9375 439.75,858.0781 Q439.1094,858.2344 438.4063,858.2344 Q435.9063,858.2344 434.5781,856.5938 Q433.2656,854.9375 433.2656,851.8125 Q433.2656,848.6875 434.5781,847.0313 Q435.9063,845.375 438.4063,845.375 Q439.1094,845.375 439.75,845.5313 Q440.4063,845.6875 440.9688,845.9844 L440.9688,848.7031 Q440.3438,848.125 439.75,847.8594 Q439.1563,847.5781 438.5313,847.5781 Q437.1875,847.5781 436.5,848.6563 Q435.8125,849.7188 435.8125,851.8125 Q435.8125,853.9063 436.5,854.9844 Q437.1875,856.0469 438.5313,856.0469 Q439.1563,856.0469 439.75,855.7813 Q440.3438,855.5 440.9688,854.9219 L440.9688,857.6406 Z " fill="#000000"/><text fill="#000000" font-family="sans-serif" font-size="14" lengthAdjust="spacing" textLength="49.6768" x="452" y="856.8467">Hidden</text></g><!--class JsonResolver__class--><g id="elem_JsonResolver__class"><rect codeLine="95" fill="#F1F1F1" height="32" id="JsonResolver__class" rx="2.5" ry="2.5" style="stroke:#181818;stroke-width:0.5;" width="121.6055" x="687" y="675"/><ellipse cx="702" cy="691" fill="#ADD1B2" rx="11" ry="11" style="stroke:#181818;stroke-width:1;"/><path d="M704.9688,696.6406 Q704.3906,696.9375 703.75,697.0781 Q703.1094,697.2344 702.4063,697.2344 Q699.9063,697.2344 698.5781,695.5938 Q697.2656,693.9375 697.2656,690.8125 Q697.2656,687.6875 698.5781,686.0313 Q699.9063,684.375 702.4063,684.375 Q703.1094,684.375 703.75,684.5313 Q704.4063,684.6875 704.9688,684.9844 L704.9688,687.7031 Q704.3438,687.125 703.75,686.8594 Q703.1563,686.5781 702.5313,686.5781 Q701.1875,686.5781 700.5,687.6563 Q699.8125,688.7188 699.8125,690.8125 Q699.8125,692.9063 700.5,693.9844 Q701.1875,695.0469 702.5313,695.0469 Q703.1563,695.0469 703.75,694.7813 Q704.3438,694.5 704.9688,693.9219 L704.9688,696.6406 Z " fill="#000000"/><text fill="#000000" font-family="sans-serif" font-size="14" lengthAdjust="spacing" textLength="89.6055" x="716" y="695.8467">JsonResolver</text></g><!--class Label__class--><g id="elem_Label__class"><rect codeLine="99" fill="#F1F1F1" height="32" id="Label__class" rx="2.5" ry="2.5" style="stroke:#181818;stroke-width:0.5;" width="69.7686" x="429" y="736"/><ellipse cx="444" cy="752" fill="#ADD1B2" rx="11" ry="11" style="stroke:#181818;stroke-width:1;"/><path d="M446.9688,757.6406 Q446.3906,757.9375 445.75,758.0781 Q445.1094,758.2344 444.4063,758.2344 Q441.9063,758.2344 440.5781,756.5938 Q439.2656,754.9375 439.2656,751.8125 Q439.2656,748.6875 440.5781,747.0313 Q441.9063,745.375 444.4063,745.375 Q445.1094,745.375 445.75,745.5313 Q446.4063,745.6875 446.9688,745.9844 L446.9688,748.7031 Q446.3438,748.125 445.75,747.8594 Q445.1563,747.5781 444.5313,747.5781 Q443.1875,747.5781 442.5,748.6563 Q441.8125,749.7188 441.8125,751.8125 Q441.8125,753.9063 442.5,754.9844 Q443.1875,756.0469 444.5313,756.0469 Q445.1563,756.0469 445.75,755.7813 Q446.3438,755.5 446.9688,754.9219 L446.9688,757.6406 Z " fill="#000000"/><text fill="#000000" font-family="sans-serif" font-size="14" lengthAdjust="spacing" textLength="37.7686" x="458" y="756.8467">Label</text></g><!--class Model__class--><g id="elem_Model__class"><rect codeLine="103" fill="#F1F1F1" height="32" id="Model__class" rx="2.5" ry="2.5" style="stroke:#181818;stroke-width:0.5;" width="74.0342" x="427" y="786"/><ellipse cx="442" cy="802" fill="#ADD1B2" rx="11" ry="11" style="stroke:#181818;stroke-width:1;"/><path d="M444.9688,807.6406 Q444.3906,807.9375 443.75,808.0781 Q443.1094,808.2344 442.4063,808.2344 Q439.9063,808.2344 438.5781,806.5938 Q437.2656,804.9375 437.2656,801.8125 Q437.2656,798.6875 438.5781,797.0313 Q439.9063,795.375 442.4063,795.375 Q443.1094,795.375 443.75,795.5313 Q444.4063,795.6875 444.9688,795.9844 L444.9688,798.7031 Q444.3438,798.125 443.75,797.8594 Q443.1563,797.5781 442.5313,797.5781 Q441.1875,797.5781 440.5,798.6563 Q439.8125,799.7188 439.8125,801.8125 Q439.8125,803.9063 440.5,804.9844 Q441.1875,806.0469 442.5313,806.0469 Q443.1563,806.0469 443.75,805.7813 Q444.3438,805.5 444.9688,804.9219 L444.9688,807.6406 Z " fill="#000000"/><text fill="#000000" font-family="sans-serif" font-size="14" lengthAdjust="spacing" textLength="42.0342" x="456" y="806.8467">Model</text></g><!--class ParsedBodyResolver__class--><g id="elem_ParsedBodyResolver__class"><rect codeLine="107" fill="#F1F1F1" height="32" id="ParsedBodyResolver__class" rx="2.5" ry="2.5" style="stroke:#181818;stroke-width:0.5;" width="175.6572" x="660" y="725"/><ellipse cx="675" cy="741" fill="#ADD1B2" rx="11" ry="11" style="stroke:#181818;stroke-width:1;"/><path d="M677.9688,746.6406 Q677.3906,746.9375 676.75,747.0781 Q676.1094,747.2344 675.4063,747.2344 Q672.9063,747.2344 671.5781,745.5938 Q670.2656,743.9375 670.2656,740.8125 Q670.2656,737.6875 671.5781,736.0313 Q672.9063,734.375 675.4063,734.375 Q676.1094,734.375 676.75,734.5313 Q677.4063,734.6875 677.9688,734.9844 L677.9688,737.7031 Q677.3438,737.125 676.75,736.8594 Q676.1563,736.5781 675.5313,736.5781 Q674.1875,736.5781 673.5,737.6563 Q672.8125,738.7188 672.8125,740.8125 Q672.8125,742.9063 673.5,743.9844 Q674.1875,745.0469 675.5313,745.0469 Q676.1563,745.0469 676.75,744.7813 Q677.3438,744.5 677.9688,743.9219 L677.9688,746.6406 Z " fill="#000000"/><text fill="#000000" font-family="sans-serif" font-size="14" lengthAdjust="spacing" textLength="143.6572" x="689" y="745.8467">ParsedBodyResolver</text></g><!--class PrimaryKey__class--><g id="elem_PrimaryKey__class"><rect codeLine="111" fill="#F1F1F1" height="32" id="PrimaryKey__class" rx="2.5" ry="2.5" style="stroke:#181818;stroke-width:0.5;" width="112.4248" x="692" y="886"/><ellipse cx="707" cy="902" fill="#ADD1B2" rx="11" ry="11" style="stroke:#181818;stroke-width:1;"/><path d="M709.9688,907.6406 Q709.3906,907.9375 708.75,908.0781 Q708.1094,908.2344 707.4063,908.2344 Q704.9063,908.2344 703.5781,906.5938 Q702.2656,904.9375 702.2656,901.8125 Q702.2656,898.6875 703.5781,897.0313 Q704.9063,895.375 707.4063,895.375 Q708.1094,895.375 708.75,895.5313 Q709.4063,895.6875 709.9688,895.9844 L709.9688,898.7031 Q709.3438,898.125 708.75,897.8594 Q708.1563,897.5781 707.5313,897.5781 Q706.1875,897.5781 705.5,898.6563 Q704.8125,899.7188 704.8125,901.8125 Q704.8125,903.9063 705.5,904.9844 Q706.1875,906.0469 707.5313,906.0469 Q708.1563,906.0469 708.75,905.7813 Q709.3438,905.5 709.9688,904.9219 L709.9688,907.6406 Z " fill="#000000"/><text fill="#000000" font-family="sans-serif" font-size="14" lengthAdjust="spacing" textLength="80.4248" x="721" y="906.8467">PrimaryKey</text></g><!--class Size__class--><g id="elem_Size__class"><rect codeLine="115" fill="#F1F1F1" height="32" id="Size__class" rx="2.5" ry="2.5" style="stroke:#181818;stroke-width:0.5;" width="60.7383" x="717.5" y="836"/><ellipse cx="732.5" cy="852" fill="#ADD1B2" rx="11" ry="11" style="stroke:#181818;stroke-width:1;"/><path d="M735.4688,857.6406 Q734.8906,857.9375 734.25,858.0781 Q733.6094,858.2344 732.9063,858.2344 Q730.4063,858.2344 729.0781,856.5938 Q727.7656,854.9375 727.7656,851.8125 Q727.7656,848.6875 729.0781,847.0313 Q730.4063,845.375 732.9063,845.375 Q733.6094,845.375 734.25,845.5313 Q734.9063,845.6875 735.4688,845.9844 L735.4688,848.7031 Q734.8438,848.125 734.25,847.8594 Q733.6563,847.5781 733.0313,847.5781 Q731.6875,847.5781 731,848.6563 Q730.3125,849.7188 730.3125,851.8125 Q730.3125,853.9063 731,854.9844 Q731.6875,856.0469 733.0313,856.0469 Q733.6563,856.0469 734.25,855.7813 Q734.8438,855.5 735.4688,854.9219 L735.4688,857.6406 Z " fill="#000000"/><text fill="#000000" font-family="sans-serif" font-size="14" lengthAdjust="spacing" textLength="28.7383" x="746.5" y="856.8467">Size</text></g><!--class FormControlTypes__enum--><g id="elem_FormControlTypes__enum"><rect codeLine="119" fill="#F1F1F1" height="32" id="FormControlTypes__enum" rx="2.5" ry="2.5" style="stroke:#181818;stroke-width:0.5;" width="160.5566" x="667.5" y="786"/><ellipse cx="682.5" cy="802" fill="#EB937F" rx="11" ry="11" style="stroke:#181818;stroke-width:1;"/><path d="M686.6094,808 L678.8906,808 L678.8906,795.6094 L686.6094,795.6094 L686.6094,797.7656 L681.3438,797.7656 L681.3438,800.4375 L686.1094,800.4375 L686.1094,802.5938 L681.3438,802.5938 L681.3438,805.8438 L686.6094,805.8438 L686.6094,808 Z " fill="#000000"/><text fill="#000000" font-family="sans-serif" font-size="14" lengthAdjust="spacing" textLength="128.5566" x="696.5" y="806.8467">FormControlTypes</text></g><!--class InputTypes__enum--><g id="elem_InputTypes__enum"><rect codeLine="123" fill="#F1F1F1" height="32" id="InputTypes__enum" rx="2.5" ry="2.5" style="stroke:#181818;stroke-width:0.5;" width="109.8818" x="873" y="886"/><ellipse cx="888" cy="902" fill="#EB937F" rx="11" ry="11" style="stroke:#181818;stroke-width:1;"/><path d="M892.1094,908 L884.3906,908 L884.3906,895.6094 L892.1094,895.6094 L892.1094,897.7656 L886.8438,897.7656 L886.8438,900.4375 L891.6094,900.4375 L891.6094,902.5938 L886.8438,902.5938 L886.8438,905.8438 L892.1094,905.8438 L892.1094,908 Z " fill="#000000"/><text fill="#000000" font-family="sans-serif" font-size="14" lengthAdjust="spacing" textLength="77.8818" x="902" y="906.8467">InputTypes</text></g><!--class ModelResolverInterface__class--><g id="elem_ModelResolverInterface__class"><rect codeLine="71" fill="#F1F1F1" height="40.2656" id="ModelResolverInterface__class" rx="2.5" ry="2.5" style="stroke:#181818;stroke-width:0.5;" width="197.457" x="67.5" y="682"/><ellipse cx="82.5" cy="702.1328" fill="#ADD1B2" rx="11" ry="11" style="stroke:#181818;stroke-width:1;"/><path d="M85.4688,707.7734 Q84.8906,708.0703 84.25,708.2109 Q83.6094,708.3672 82.9063,708.3672 Q80.4063,708.3672 79.0781,706.7266 Q77.7656,705.0703 77.7656,701.9453 Q77.7656,698.8203 79.0781,697.1641 Q80.4063,695.5078 82.9063,695.5078 Q83.6094,695.5078 84.25,695.6641 Q84.9063,695.8203 85.4688,696.1172 L85.4688,698.8359 Q84.8438,698.2578 84.25,697.9922 Q83.6563,697.7109 83.0313,697.7109 Q81.6875,697.7109 81,698.7891 Q80.3125,699.8516 80.3125,701.9453 Q80.3125,704.0391 81,705.1172 Q81.6875,706.1797 83.0313,706.1797 Q83.6563,706.1797 84.25,705.9141 Q84.8438,705.6328 85.4688,705.0547 L85.4688,707.7734 Z " fill="#000000"/><text fill="#000000" font-family="sans-serif" font-size="12" font-style="italic" lengthAdjust="spacing" textLength="64.4824" x="146.9873" y="698.1387">&#171;external&#187;</text><text fill="#000000" font-family="sans-serif" font-size="14" lengthAdjust="spacing" textLength="165.457" x="96.5" y="713.9639">ModelResolverInterface</text></g><!--class AbstractPropertyNameExtractor__class--><g id="elem_AbstractPropertyNameExtractor__class"><rect codeLine="79" fill="#F1F1F1" height="40.2656" id="AbstractPropertyNameExtractor__class" rx="2.5" ry="2.5" style="stroke:#181818;stroke-width:0.5;" width="256.3281" x="38" y="827"/><ellipse cx="53" cy="847.1328" fill="#ADD1B2" rx="11" ry="11" style="stroke:#181818;stroke-width:1;"/><path d="M55.9688,852.7734 Q55.3906,853.0703 54.75,853.2109 Q54.1094,853.3672 53.4063,853.3672 Q50.9063,853.3672 49.5781,851.7266 Q48.2656,850.0703 48.2656,846.9453 Q48.2656,843.8203 49.5781,842.1641 Q50.9063,840.5078 53.4063,840.5078 Q54.1094,840.5078 54.75,840.6641 Q55.4063,840.8203 55.9688,841.1172 L55.9688,843.8359 Q55.3438,843.2578 54.75,842.9922 Q54.1563,842.7109 53.5313,842.7109 Q52.1875,842.7109 51.5,843.7891 Q50.8125,844.8516 50.8125,846.9453 Q50.8125,849.0391 51.5,850.1172 Q52.1875,851.1797 53.5313,851.1797 Q54.1563,851.1797 54.75,850.9141 Q55.3438,850.6328 55.9688,850.0547 L55.9688,852.7734 Z " fill="#000000"/><text fill="#000000" font-family="sans-serif" font-size="12" font-style="italic" lengthAdjust="spacing" textLength="64.4824" x="146.9229" y="843.1387">&#171;external&#187;</text><text fill="#000000" font-family="sans-serif" font-size="14" lengthAdjust="spacing" textLength="224.3281" x="67" y="858.9639">AbstractPropertyNameExtractor</text></g><polygon fill="#516F42" points="543.5564,137.4648,551.28,143.5759,548.3995,138.7074,553.2681,135.8269,543.5564,137.4648" style="stroke:#516F42;stroke-width:1;"/><path d="M549.3681,138.9559 C565.6195,143.1252 576.4074,147.3023 591,155 C671.3952,197.4092 722.8942,301.6027 740.3609,341.808 " fill="transparent" style="stroke:#516F42;stroke-width:1;"/><text fill="#000000" font-family="sans-serif" font-size="13" lengthAdjust="spacing" textLength="29.7832" x="611" y="165.0669">uses</text><polygon fill="#516F42" points="564.0291,201.7709,571.2746,208.4419,568.7659,203.3718,573.836,200.8631,564.0291,201.7709" style="stroke:#516F42;stroke-width:1;"/><path d="M569.7132,203.692 C579.0578,206.8501 582.5145,208.6404 591,213 C654.4761,245.6118 710.9086,311.4655 734.8397,341.9027 " fill="transparent" style="stroke:#516F42;stroke-width:1;"/><text fill="#000000" font-family="sans-serif" font-size="13" lengthAdjust="spacing" textLength="29.7832" x="611" y="220.0669">uses</text><polygon fill="#516F42" points="564.1655,262.0104,571.6754,268.3823,568.9633,263.418,573.9276,260.7058,564.1655,262.0104" style="stroke:#516F42;stroke-width:1;"/><path d="M569.9228,263.6995 C579.0989,266.3916 582.4112,267.6936 591,271 C640.4875,290.0507 693.4672,322.4687 723.1933,341.8961 " fill="transparent" style="stroke:#516F42;stroke-width:1;"/><text fill="#000000" font-family="sans-serif" font-size="13" lengthAdjust="spacing" textLength="29.7832" x="611" y="276.0669">uses</text><polygon fill="#516F42" points="561.0669,318.6254,569.1201,324.2951,565.972,319.5952,570.6719,316.4471,561.0669,318.6254" style="stroke:#516F42;stroke-width:1;"/><path d="M566.953,319.7892 C593.2179,324.9825 615.781,329.5367 642,335 C654.6969,337.6457 668.2387,340.55 681.2308,343.3776 " fill="transparent" style="stroke:#516F42;stroke-width:1;"/><text fill="#000000" font-family="sans-serif" font-size="13" lengthAdjust="spacing" textLength="29.7832" x="611" y="325.0669">uses</text><polygon fill="#516F42" points="583.7761,358,592.7761,362,588.7761,358,592.7761,354,583.7761,358" style="stroke:#516F42;stroke-width:1;"/><path d="M589.7761,358 C623.1925,358 652.3173,358 681.3866,358 " fill="transparent" style="stroke:#516F42;stroke-width:1;"/><text fill="#000000" font-family="sans-serif" font-size="13" lengthAdjust="spacing" textLength="29.7832" x="611" y="353.0669">uses</text><polygon fill="#516F42" points="568.0262,395.9964,577.6325,398.1688,572.9306,395.0235,576.0759,390.3217,568.0262,395.9964" style="stroke:#516F42;stroke-width:1;"/><path d="M573.9115,394.829 C598.1911,390.0127 618.0809,385.9841 642,381 C654.6969,378.3543 668.2387,375.45 681.2308,372.6224 " fill="transparent" style="stroke:#516F42;stroke-width:1;"/><text fill="#000000" font-family="sans-serif" font-size="13" lengthAdjust="spacing" textLength="29.7832" x="611" y="376.0669">uses</text><polygon fill="#516F42" points="540.0014,460.4002,549.6866,462.1879,544.8631,459.2325,547.8185,454.409,540.0014,460.4002" style="stroke:#516F42;stroke-width:1;"/><path d="M545.8355,458.999 C562.8779,454.9061 574.8698,451.2095 591,445 C640.4875,425.9493 693.4672,393.5313 723.1933,374.1039 " fill="transparent" style="stroke:#516F42;stroke-width:1;"/><text fill="#000000" font-family="sans-serif" font-size="13" lengthAdjust="spacing" textLength="29.7832" x="611" y="418.0669">uses</text><polygon fill="#516F42" points="536.7564,521.7836,546.4307,523.6295,541.6251,520.6452,544.6093,515.8396,536.7564,521.7836" style="stroke:#516F42;stroke-width:1;"/><path d="M542.5988,520.4176 C560.906,516.137 574.281,511.4724 591,503 C654.6567,470.742 710.9975,404.7087 734.8725,374.1615 " fill="transparent" style="stroke:#516F42;stroke-width:1;"/><text fill="#000000" font-family="sans-serif" font-size="13" lengthAdjust="spacing" textLength="29.7832" x="611" y="467.0669">uses</text><polygon fill="#516F42" points="558.1249,574.2693,567.9088,575.3986,562.8966,572.7759,565.5193,567.7638,558.1249,574.2693" style="stroke:#516F42;stroke-width:1;"/><path d="M563.851,572.4772 C575.2453,568.9112 580.7465,566.3388 591,561 C671.6211,519.0218 722.9851,414.5707 740.3883,374.2443 " fill="transparent" style="stroke:#516F42;stroke-width:1;"/><text fill="#000000" font-family="sans-serif" font-size="13" lengthAdjust="spacing" textLength="29.7832" x="611" y="519.0669">uses</text><polygon fill="#516F42" points="531.2496,639.823,540.8887,641.8447,536.1382,638.7734,539.2095,634.0229,531.2496,639.823" style="stroke:#516F42;stroke-width:1;"/><path d="M537.1159,638.5635 C557.1517,634.262 572.787,628.9701 591,619 C688.9359,565.3882 731.5274,422.2134 743.3753,374.0577 " fill="transparent" style="stroke:#516F42;stroke-width:1;"/><text fill="#000000" font-family="sans-serif" font-size="13" lengthAdjust="spacing" textLength="29.7832" x="611" y="574.0669">uses</text><polygon fill="transparent" points="534.5503,44.023,549.0944,56.2078,553.4965,45.0444,534.5503,44.023" style="stroke:#516F42;stroke-width:1;"/><path d="M551.2954,50.6261 C570.8022,58.3183 574.439,61.8915 591,75 C684.0382,148.6421 729.8247,293.7666 742.9314,341.9949 " fill="transparent" style="stroke:#516F42;stroke-width:1;stroke-dasharray:7.0,7.0;"/><polygon fill="transparent" points="264.7418,702,282.7418,708,282.7418,696,264.7418,702" style="stroke:#516F42;stroke-width:1;"/><path d="M282.7418,702 C315.5788,702 334.1614,702 366.8733,702 " fill="transparent" style="stroke:#516F42;stroke-width:1;stroke-dasharray:7.0,7.0;"/><polygon fill="transparent" points="200.5942,867.0047,213.2685,881.1242,219.2054,870.6957,200.5942,867.0047" style="stroke:#516F42;stroke-width:1;"/><path d="M216.237,875.91 C248.2166,894.1156 282.5751,911.5343 329,927 C358.9737,936.9853 394.1265,943.3549 420.9056,947.1644 " fill="transparent" style="stroke:#516F42;stroke-width:1;"/><polygon fill="transparent" points="561.2597,698.2452,579.4799,703.539,579.0121,691.5482,561.2597,698.2452" style="stroke:#516F42;stroke-width:1;"/><path d="M579.246,697.5436 C620.8904,695.9192 650.3574,694.7697 686.8755,693.3453 " fill="transparent" style="stroke:#516F42;stroke-width:1;"/><polygon fill="transparent" points="206.6688,826.8845,225.4841,824.4387,220.2535,813.6386,206.6688,826.8845" style="stroke:#516F42;stroke-width:1;"/><path d="M222.8688,819.0386 C255.101,803.4282 285.9224,790.1443 329,777 C362.2735,766.8472 401.5179,760.1111 428.9048,756.2155 " fill="transparent" style="stroke:#516F42;stroke-width:1;"/><polygon fill="transparent" points="561.2597,715.3125,578.268,723.7218,579.9119,711.835,561.2597,715.3125" style="stroke:#516F42;stroke-width:1;"/><path d="M579.09,717.7784 C611.0014,722.1917 628.4934,724.6108 659.6926,728.9256 " fill="transparent" style="stroke:#516F42;stroke-width:1;"/><!--SRC=[pLVlRvim4FtENt6ZNpPfbRffMwMfgjJrXzPjdQArsYUaw1eknAgnaMtQigh_-mmf8GwGaDNJbY-1k-EzvmC_ZXUPmYH5u5Z8t81EoQ30003q3HCPAapXI2bvToovLB3p_is7wRktRXudXjqoKtoIAYOrf10dDucIkOYVYgVLhxluX64gHJmOlAuVmg5d6Cix9XAO8jSK1Fsf9iEP85Da15APcGncB2QWD3C5f9HUaz81fwa18q6nP6OWPegiDYa2JGO4fgGpdD0bbN36IekY8632a9hQC8JdzgYC7oM9eWGDXO0QMj7nUC9HQpWu0BgtIO4S3WyVWiTWGG6ZMIOvgYYwa35nU2XN3_FBGjkMF1NVRUsLGcP2A5bMWkEnAVzAZfTNhtVEplRtz_PUGPMpP4-0ZuCvJz3WbMtT2PbvIvQektE-5PmAOv-HSe77KanPajkckZhMLVXMSyQ8nwTsUwaBqXgJvLlHdVEkGAhqN6IvwRijQmh-XXRRSwCaNwUcjyItdczuJRnaHBCaOJNgctMaM8gg-4h54kbAq3Vd9VlLkn-wSxuL_4JEubNgbU1mpYXokQAepzXsTw5TV7IjRNfYgjFQPpz2habtG6ymBWyCWop90yy6o_71CC1DFD5ijWaFHBrcu06xRyzxWDwmfpqmz6tThQ4ts0S-NRem4WUhcfmwqUsFfHcdb8JHLbBlUBNPo7wGbloMb6jeJkgydkugGTsfldbke8-kRqJDrcv8dUbhJFTQLqvRYrWhUt5mB1MvNQkbZPJCICqzx_I-2abNV6V5CtleZiPXCn0tpIbXHUmqnbbEyp2l5GXRQshU0Q4xfIxTkAr1FxCuflb2vuVF0VkYfN2Ui-N0sWvssK3hmgtrLDuSBaQs_-0UDfwqwaLRGurGQR8VnN7XjBmT_WUDRrvSeJkxFcV1vIihhEVHFm4YaQUjRmmTTdnLwF6uAjuIUZ7Np46RqnRSRm00]--></g></svg>