<?xml version="1.0" encoding="UTF-8" standalone="no"?><svg xmlns="http://www.w3.org/2000/svg" xmlns:xlink="http://www.w3.org/1999/xlink" contentScriptType="application/ecmascript" contentStyleType="text/css" height="1216px" preserveAspectRatio="none" style="width:811px;height:1216px;" version="1.1" viewBox="0 0 811 1216" width="811px" zoomAndPan="magnify"><defs/><g><!--MD5=[9a8dd0db920cbeef0d42b95e4a30ba09]
cluster Phpolar\\Model--><polygon fill="#FFFFFF" points="318,56,436,56,443,78.2969,789,78.2969,789,1204,318,1204,318,56" style="stroke: #000000; stroke-width: 1.5;"/><line style="stroke: #000000; stroke-width: 1.5;" x1="318" x2="443" y1="78.2969" y2="78.2969"/><text fill="#000000" font-family="sans-serif" font-size="14" font-weight="bold" lengthAdjust="spacingAndGlyphs" textLength="112" x="322" y="70.9951">Phpolar\Model</text><!--MD5=[6e42f78f80b986da6d510e1738ea0ecf]
cluster Phpolar\\Phpolar\\Core--><polygon fill="#FFFFFF" points="22,1004,196,1004,203,1026.2969,285,1026.2969,285,1087,22,1087,22,1004" style="stroke: #000000; stroke-width: 1.5;"/><line style="stroke: #000000; stroke-width: 1.5;" x1="22" x2="203" y1="1026.2969" y2="1026.2969"/><text fill="#000000" font-family="sans-serif" font-size="14" font-weight="bold" lengthAdjust="spacingAndGlyphs" textLength="168" x="26" y="1018.9951">Phpolar\Phpolar\Core</text><!--MD5=[402fc16ece33cd68e111d0471e03e320]
cluster Phpolar\\ModelResolver--><polygon fill="#FFFFFF" points="48.5,1121,235.5,1121,242.5,1143.2969,258.5,1143.2969,258.5,1204,48.5,1204,48.5,1121" style="stroke: #000000; stroke-width: 1.5;"/><line style="stroke: #000000; stroke-width: 1.5;" x1="48.5" x2="242.5" y1="1143.2969" y2="1143.2969"/><text fill="#000000" font-family="sans-serif" font-size="14" font-weight="bold" lengthAdjust="spacingAndGlyphs" textLength="181" x="52.5" y="1135.9951">Phpolar\ModelResolver</text><!--MD5=[caa9355391603875d5b6511f327c8f88]
class Phpolar\\Model\\ColumnNameTrait--><rect fill="#FEFECE" height="37.9375" id="Phpolar\\Model\\ColumnNameTrait" style="stroke: #A80036; stroke-width: 1.5;" width="142" x="376" y="730"/><ellipse cx="391" cy="748.9688" fill="#FF7700" rx="11" ry="11" style="stroke: #A80036; stroke-width: 1.0;"/><path d="M391.8438,755.7188 L389.3906,755.7188 L389.3906,745.4688 L386.25,745.4688 L386.25,743.3281 L394.9844,743.3281 L394.9844,745.4688 L391.8438,745.4688 L391.8438,755.7188 Z "/><text fill="#000000" font-family="sans-serif" font-size="12" font-style="italic" lengthAdjust="spacingAndGlyphs" textLength="42" x="439" y="746.1387">«Trait»</text><text fill="#000000" font-family="sans-serif" font-size="12" lengthAdjust="spacingAndGlyphs" textLength="110" x="405" y="760.1074">ColumnNameTrait</text><!--MD5=[56ba4aeecb038b84dd4bf62e440b3b0d]
class Phpolar\\Model\\AbstractModel--><rect fill="#FEFECE" height="32" id="Phpolar\\Model\\AbstractModel" style="stroke: #A80036; stroke-width: 1.5;" width="121" x="652" y="587"/><ellipse cx="667" cy="603" fill="#A9DCDF" rx="11" ry="11" style="stroke: #A80036; stroke-width: 1.0;"/><path d="M667.1094,598.3438 L665.9531,603.4219 L668.2813,603.4219 L667.1094,598.3438 Z M665.625,596.1094 L668.6094,596.1094 L671.9688,608.5 L669.5156,608.5 L668.75,605.4375 L665.4688,605.4375 L664.7188,608.5 L662.2813,608.5 L665.625,596.1094 Z "/><text fill="#000000" font-family="sans-serif" font-size="12" font-style="italic" lengthAdjust="spacingAndGlyphs" textLength="89" x="681" y="607.1543">AbstractModel</text><!--MD5=[c0fbfe4a9a2714ace000dbf768c23a53]
class Phpolar\\Model\\DataTypeDetectionTrait--><rect fill="#FEFECE" height="37.9375" id="Phpolar\\Model\\DataTypeDetectionTrait" style="stroke: #A80036; stroke-width: 1.5;" width="180" x="357" y="803"/><ellipse cx="372" cy="821.9688" fill="#FF7700" rx="11" ry="11" style="stroke: #A80036; stroke-width: 1.0;"/><path d="M372.8438,828.7188 L370.3906,828.7188 L370.3906,818.4688 L367.25,818.4688 L367.25,816.3281 L375.9844,816.3281 L375.9844,818.4688 L372.8438,818.4688 L372.8438,828.7188 Z "/><text fill="#000000" font-family="sans-serif" font-size="12" font-style="italic" lengthAdjust="spacingAndGlyphs" textLength="42" x="439" y="819.1387">«Trait»</text><text fill="#000000" font-family="sans-serif" font-size="12" lengthAdjust="spacingAndGlyphs" textLength="148" x="386" y="833.1074">DataTypeDetectionTrait</text><!--MD5=[3895652401d90a235e182c7617b6981d]
class Phpolar\\Model\\EntityNameConfigurationTrait--><rect fill="#FEFECE" height="37.9375" id="Phpolar\\Model\\EntityNameConfigurationTrait" style="stroke: #A80036; stroke-width: 1.5;" width="215" x="339.5" y="876"/><ellipse cx="354.5" cy="894.9688" fill="#FF7700" rx="11" ry="11" style="stroke: #A80036; stroke-width: 1.0;"/><path d="M355.3438,901.7188 L352.8906,901.7188 L352.8906,891.4688 L349.75,891.4688 L349.75,889.3281 L358.4844,889.3281 L358.4844,891.4688 L355.3438,891.4688 L355.3438,901.7188 Z "/><text fill="#000000" font-family="sans-serif" font-size="12" font-style="italic" lengthAdjust="spacingAndGlyphs" textLength="42" x="439" y="892.1387">«Trait»</text><text fill="#000000" font-family="sans-serif" font-size="12" lengthAdjust="spacingAndGlyphs" textLength="183" x="368.5" y="906.1074">EntityNameConfigurationTrait</text><!--MD5=[e7de499626d8674b55fc9fc302d4df4e]
class Phpolar\\Model\\FieldErrorMessageTrait--><rect fill="#FEFECE" height="37.9375" id="Phpolar\\Model\\FieldErrorMessageTrait" style="stroke: #A80036; stroke-width: 1.5;" width="176" x="359" y="949"/><ellipse cx="374" cy="967.9688" fill="#FF7700" rx="11" ry="11" style="stroke: #A80036; stroke-width: 1.0;"/><path d="M374.8438,974.7188 L372.3906,974.7188 L372.3906,964.4688 L369.25,964.4688 L369.25,962.3281 L377.9844,962.3281 L377.9844,964.4688 L374.8438,964.4688 L374.8438,974.7188 Z "/><text fill="#000000" font-family="sans-serif" font-size="12" font-style="italic" lengthAdjust="spacingAndGlyphs" textLength="42" x="439" y="965.1387">«Trait»</text><text fill="#000000" font-family="sans-serif" font-size="12" lengthAdjust="spacingAndGlyphs" textLength="144" x="388" y="979.1074">FieldErrorMessageTrait</text><!--MD5=[1832ec2962e3394d54c7575aa501ebe3]
class Phpolar\\Model\\FormInputTypeDetectionTrait--><rect fill="#FEFECE" height="37.9375" id="Phpolar\\Model\\FormInputTypeDetectionTrait" style="stroke: #A80036; stroke-width: 1.5;" width="213" x="340.5" y="292"/><ellipse cx="355.5" cy="310.9688" fill="#FF7700" rx="11" ry="11" style="stroke: #A80036; stroke-width: 1.0;"/><path d="M356.3438,317.7188 L353.8906,317.7188 L353.8906,307.4688 L350.75,307.4688 L350.75,305.3281 L359.4844,305.3281 L359.4844,307.4688 L356.3438,307.4688 L356.3438,317.7188 Z "/><text fill="#000000" font-family="sans-serif" font-size="12" font-style="italic" lengthAdjust="spacingAndGlyphs" textLength="42" x="439" y="308.1387">«Trait»</text><text fill="#000000" font-family="sans-serif" font-size="12" lengthAdjust="spacingAndGlyphs" textLength="181" x="369.5" y="322.1074">FormInputTypeDetectionTrait</text><!--MD5=[3d545ee9d27a47fb61bad5f4a3014225]
class Phpolar\\Model\\FormControlTypeDetectionTrait--><rect fill="#FEFECE" height="37.9375" id="Phpolar\\Model\\FormControlTypeDetectionTrait" style="stroke: #A80036; stroke-width: 1.5;" width="226" x="334" y="365"/><ellipse cx="349" cy="383.9688" fill="#FF7700" rx="11" ry="11" style="stroke: #A80036; stroke-width: 1.0;"/><path d="M349.8438,390.7188 L347.3906,390.7188 L347.3906,380.4688 L344.25,380.4688 L344.25,378.3281 L352.9844,378.3281 L352.9844,380.4688 L349.8438,380.4688 L349.8438,390.7188 Z "/><text fill="#000000" font-family="sans-serif" font-size="12" font-style="italic" lengthAdjust="spacingAndGlyphs" textLength="42" x="439" y="381.1387">«Trait»</text><text fill="#000000" font-family="sans-serif" font-size="12" lengthAdjust="spacingAndGlyphs" textLength="194" x="363" y="395.1074">FormControlTypeDetectionTrait</text><!--MD5=[980bbc7ad1065f62aa5adab950de62a2]
class Phpolar\\Model\\LabelFormatTrait--><rect fill="#FEFECE" height="37.9375" id="Phpolar\\Model\\LabelFormatTrait" style="stroke: #A80036; stroke-width: 1.5;" width="137" x="378.5" y="438"/><ellipse cx="393.5" cy="456.9688" fill="#FF7700" rx="11" ry="11" style="stroke: #A80036; stroke-width: 1.0;"/><path d="M394.3438,463.7188 L391.8906,463.7188 L391.8906,453.4688 L388.75,453.4688 L388.75,451.3281 L397.4844,451.3281 L397.4844,453.4688 L394.3438,453.4688 L394.3438,463.7188 Z "/><text fill="#000000" font-family="sans-serif" font-size="12" font-style="italic" lengthAdjust="spacingAndGlyphs" textLength="42" x="439" y="454.1387">«Trait»</text><text fill="#000000" font-family="sans-serif" font-size="12" lengthAdjust="spacingAndGlyphs" textLength="105" x="407.5" y="468.1074">LabelFormatTrait</text><!--MD5=[87aeb07daaccef1424911a9daa381473]
class Phpolar\\Model\\PrimaryKeyTrait--><rect fill="#FEFECE" height="37.9375" id="Phpolar\\Model\\PrimaryKeyTrait" style="stroke: #A80036; stroke-width: 1.5;" width="127" x="383.5" y="511"/><ellipse cx="398.5" cy="529.9688" fill="#FF7700" rx="11" ry="11" style="stroke: #A80036; stroke-width: 1.0;"/><path d="M399.3438,536.7188 L396.8906,536.7188 L396.8906,526.4688 L393.75,526.4688 L393.75,524.3281 L402.4844,524.3281 L402.4844,526.4688 L399.3438,526.4688 L399.3438,536.7188 Z "/><text fill="#000000" font-family="sans-serif" font-size="12" font-style="italic" lengthAdjust="spacingAndGlyphs" textLength="42" x="439" y="527.1387">«Trait»</text><text fill="#000000" font-family="sans-serif" font-size="12" lengthAdjust="spacingAndGlyphs" textLength="95" x="412.5" y="541.1074">PrimaryKeyTrait</text><!--MD5=[3c6327897ffb562a707f4bfad95d3c16]
class Phpolar\\Model\\SizeConfigurationTrait--><rect fill="#FEFECE" height="37.9375" id="Phpolar\\Model\\SizeConfigurationTrait" style="stroke: #A80036; stroke-width: 1.5;" width="168" x="363" y="584"/><ellipse cx="378" cy="602.9688" fill="#FF7700" rx="11" ry="11" style="stroke: #A80036; stroke-width: 1.0;"/><path d="M378.8438,609.7188 L376.3906,609.7188 L376.3906,599.4688 L373.25,599.4688 L373.25,597.3281 L381.9844,597.3281 L381.9844,599.4688 L378.8438,599.4688 L378.8438,609.7188 Z "/><text fill="#000000" font-family="sans-serif" font-size="12" font-style="italic" lengthAdjust="spacingAndGlyphs" textLength="42" x="439" y="600.1387">«Trait»</text><text fill="#000000" font-family="sans-serif" font-size="12" lengthAdjust="spacingAndGlyphs" textLength="136" x="392" y="614.1074">SizeConfigurationTrait</text><!--MD5=[ac3598d24604fece2070e5c074b7760e]
class Phpolar\\Model\\ValidationTrait--><rect fill="#FEFECE" height="37.9375" id="Phpolar\\Model\\ValidationTrait" style="stroke: #A80036; stroke-width: 1.5;" width="122" x="386" y="657"/><ellipse cx="401" cy="675.9688" fill="#FF7700" rx="11" ry="11" style="stroke: #A80036; stroke-width: 1.0;"/><path d="M401.8438,682.7188 L399.3906,682.7188 L399.3906,672.4688 L396.25,672.4688 L396.25,670.3281 L404.9844,670.3281 L404.9844,672.4688 L401.8438,672.4688 L401.8438,682.7188 Z "/><text fill="#000000" font-family="sans-serif" font-size="12" font-style="italic" lengthAdjust="spacingAndGlyphs" textLength="42" x="439" y="673.1387">«Trait»</text><text fill="#000000" font-family="sans-serif" font-size="12" lengthAdjust="spacingAndGlyphs" textLength="90" x="415" y="687.1074">ValidationTrait</text><!--MD5=[c41533ee0eab01fdb50008e84b437976]
class Phpolar\\Model\\Column--><rect fill="#FEFECE" height="32" id="Phpolar\\Model\\Column" style="stroke: #A80036; stroke-width: 1.5;" width="78" x="408" y="1022"/><ellipse cx="423" cy="1038" fill="#ADD1B2" rx="11" ry="11" style="stroke: #A80036; stroke-width: 1.0;"/><path d="M425.9688,1043.6406 Q425.3906,1043.9375 424.75,1044.0781 Q424.1094,1044.2344 423.4063,1044.2344 Q420.9063,1044.2344 419.5781,1042.5938 Q418.2656,1040.9375 418.2656,1037.8125 Q418.2656,1034.6875 419.5781,1033.0313 Q420.9063,1031.375 423.4063,1031.375 Q424.1094,1031.375 424.75,1031.5313 Q425.4063,1031.6875 425.9688,1031.9844 L425.9688,1034.7031 Q425.3438,1034.125 424.75,1033.8594 Q424.1563,1033.5781 423.5313,1033.5781 Q422.1875,1033.5781 421.5,1034.6563 Q420.8125,1035.7188 420.8125,1037.8125 Q420.8125,1039.9063 421.5,1040.9844 Q422.1875,1042.0469 423.5313,1042.0469 Q424.1563,1042.0469 424.75,1041.7813 Q425.3438,1041.5 425.9688,1040.9219 L425.9688,1043.6406 Z "/><text fill="#000000" font-family="sans-serif" font-size="12" lengthAdjust="spacingAndGlyphs" textLength="46" x="437" y="1042.1543">Column</text><!--MD5=[1e5bea4753bae813cd5625709131121d]
class Phpolar\\Model\\EntityName--><rect fill="#FEFECE" height="32" id="Phpolar\\Model\\EntityName" style="stroke: #A80036; stroke-width: 1.5;" width="103" x="395.5" y="225"/><ellipse cx="410.5" cy="241" fill="#ADD1B2" rx="11" ry="11" style="stroke: #A80036; stroke-width: 1.0;"/><path d="M413.4688,246.6406 Q412.8906,246.9375 412.25,247.0781 Q411.6094,247.2344 410.9063,247.2344 Q408.4063,247.2344 407.0781,245.5938 Q405.7656,243.9375 405.7656,240.8125 Q405.7656,237.6875 407.0781,236.0313 Q408.4063,234.375 410.9063,234.375 Q411.6094,234.375 412.25,234.5313 Q412.9063,234.6875 413.4688,234.9844 L413.4688,237.7031 Q412.8438,237.125 412.25,236.8594 Q411.6563,236.5781 411.0313,236.5781 Q409.6875,236.5781 409,237.6563 Q408.3125,238.7188 408.3125,240.8125 Q408.3125,242.9063 409,243.9844 Q409.6875,245.0469 411.0313,245.0469 Q411.6563,245.0469 412.25,244.7813 Q412.8438,244.5 413.4688,243.9219 L413.4688,246.6406 Z "/><text fill="#000000" font-family="sans-serif" font-size="12" lengthAdjust="spacingAndGlyphs" textLength="71" x="424.5" y="245.1543">EntityName</text><!--MD5=[721ec49f7991df4a9512ed8f0417dfb1]
class Phpolar\\Model\\Hidden--><rect fill="#FEFECE" height="32" id="Phpolar\\Model\\Hidden" style="stroke: #A80036; stroke-width: 1.5;" width="76" x="409" y="158"/><ellipse cx="424" cy="174" fill="#ADD1B2" rx="11" ry="11" style="stroke: #A80036; stroke-width: 1.0;"/><path d="M426.9688,179.6406 Q426.3906,179.9375 425.75,180.0781 Q425.1094,180.2344 424.4063,180.2344 Q421.9063,180.2344 420.5781,178.5938 Q419.2656,176.9375 419.2656,173.8125 Q419.2656,170.6875 420.5781,169.0313 Q421.9063,167.375 424.4063,167.375 Q425.1094,167.375 425.75,167.5313 Q426.4063,167.6875 426.9688,167.9844 L426.9688,170.7031 Q426.3438,170.125 425.75,169.8594 Q425.1563,169.5781 424.5313,169.5781 Q423.1875,169.5781 422.5,170.6563 Q421.8125,171.7188 421.8125,173.8125 Q421.8125,175.9063 422.5,176.9844 Q423.1875,178.0469 424.5313,178.0469 Q425.1563,178.0469 425.75,177.7813 Q426.3438,177.5 426.9688,176.9219 L426.9688,179.6406 Z "/><text fill="#000000" font-family="sans-serif" font-size="12" lengthAdjust="spacingAndGlyphs" textLength="44" x="438" y="178.1543">Hidden</text><!--MD5=[2e0cc8ec0a6bcfb0bfaa28ed07dc2ba5]
class Phpolar\\Model\\Label--><rect fill="#FEFECE" height="32" id="Phpolar\\Model\\Label" style="stroke: #A80036; stroke-width: 1.5;" width="65" x="414.5" y="1089"/><ellipse cx="429.5" cy="1105" fill="#ADD1B2" rx="11" ry="11" style="stroke: #A80036; stroke-width: 1.0;"/><path d="M432.4688,1110.6406 Q431.8906,1110.9375 431.25,1111.0781 Q430.6094,1111.2344 429.9063,1111.2344 Q427.4063,1111.2344 426.0781,1109.5938 Q424.7656,1107.9375 424.7656,1104.8125 Q424.7656,1101.6875 426.0781,1100.0313 Q427.4063,1098.375 429.9063,1098.375 Q430.6094,1098.375 431.25,1098.5313 Q431.9063,1098.6875 432.4688,1098.9844 L432.4688,1101.7031 Q431.8438,1101.125 431.25,1100.8594 Q430.6563,1100.5781 430.0313,1100.5781 Q428.6875,1100.5781 428,1101.6563 Q427.3125,1102.7188 427.3125,1104.8125 Q427.3125,1106.9063 428,1107.9844 Q428.6875,1109.0469 430.0313,1109.0469 Q430.6563,1109.0469 431.25,1108.7813 Q431.8438,1108.5 432.4688,1107.9219 L432.4688,1110.6406 Z "/><text fill="#000000" font-family="sans-serif" font-size="12" lengthAdjust="spacingAndGlyphs" textLength="33" x="443.5" y="1109.1543">Label</text><!--MD5=[7ce4405381bcf6f99eb59735bf7a5af3]
class Phpolar\\Model\\Model--><rect fill="#FEFECE" height="32" id="Phpolar\\Model\\Model" style="stroke: #A80036; stroke-width: 1.5;" width="69" x="412.5" y="91"/><ellipse cx="427.5" cy="107" fill="#ADD1B2" rx="11" ry="11" style="stroke: #A80036; stroke-width: 1.0;"/><path d="M430.4688,112.6406 Q429.8906,112.9375 429.25,113.0781 Q428.6094,113.2344 427.9063,113.2344 Q425.4063,113.2344 424.0781,111.5938 Q422.7656,109.9375 422.7656,106.8125 Q422.7656,103.6875 424.0781,102.0313 Q425.4063,100.375 427.9063,100.375 Q428.6094,100.375 429.25,100.5313 Q429.9063,100.6875 430.4688,100.9844 L430.4688,103.7031 Q429.8438,103.125 429.25,102.8594 Q428.6563,102.5781 428.0313,102.5781 Q426.6875,102.5781 426,103.6563 Q425.3125,104.7188 425.3125,106.8125 Q425.3125,108.9063 426,109.9844 Q426.6875,111.0469 428.0313,111.0469 Q428.6563,111.0469 429.25,110.7813 Q429.8438,110.5 430.4688,109.9219 L430.4688,112.6406 Z "/><text fill="#000000" font-family="sans-serif" font-size="12" lengthAdjust="spacingAndGlyphs" textLength="37" x="441.5" y="111.1543">Model</text><!--MD5=[fa3924b74ff569b18d627cd319dd9834]
class Phpolar\\Model\\ModelResolver--><rect fill="#FEFECE" height="32" id="Phpolar\\Model\\ModelResolver" style="stroke: #A80036; stroke-width: 1.5;" width="122" x="386" y="1156"/><ellipse cx="401" cy="1172" fill="#ADD1B2" rx="11" ry="11" style="stroke: #A80036; stroke-width: 1.0;"/><path d="M403.9688,1177.6406 Q403.3906,1177.9375 402.75,1178.0781 Q402.1094,1178.2344 401.4063,1178.2344 Q398.9063,1178.2344 397.5781,1176.5938 Q396.2656,1174.9375 396.2656,1171.8125 Q396.2656,1168.6875 397.5781,1167.0313 Q398.9063,1165.375 401.4063,1165.375 Q402.1094,1165.375 402.75,1165.5313 Q403.4063,1165.6875 403.9688,1165.9844 L403.9688,1168.7031 Q403.3438,1168.125 402.75,1167.8594 Q402.1563,1167.5781 401.5313,1167.5781 Q400.1875,1167.5781 399.5,1168.6563 Q398.8125,1169.7188 398.8125,1171.8125 Q398.8125,1173.9063 399.5,1174.9844 Q400.1875,1176.0469 401.5313,1176.0469 Q402.1563,1176.0469 402.75,1175.7813 Q403.3438,1175.5 403.9688,1174.9219 L403.9688,1177.6406 Z "/><text fill="#000000" font-family="sans-serif" font-size="12" lengthAdjust="spacingAndGlyphs" textLength="90" x="415" y="1176.1543">ModelResolver</text><!--MD5=[0e7b9c8fe99a79e13f09a77fceda4a81]
class Phpolar\\Model\\PrimaryKey--><rect fill="#FEFECE" height="32" id="Phpolar\\Model\\PrimaryKey" style="stroke: #A80036; stroke-width: 1.5;" width="99" x="663" y="225"/><ellipse cx="678" cy="241" fill="#ADD1B2" rx="11" ry="11" style="stroke: #A80036; stroke-width: 1.0;"/><path d="M680.9688,246.6406 Q680.3906,246.9375 679.75,247.0781 Q679.1094,247.2344 678.4063,247.2344 Q675.9063,247.2344 674.5781,245.5938 Q673.2656,243.9375 673.2656,240.8125 Q673.2656,237.6875 674.5781,236.0313 Q675.9063,234.375 678.4063,234.375 Q679.1094,234.375 679.75,234.5313 Q680.4063,234.6875 680.9688,234.9844 L680.9688,237.7031 Q680.3438,237.125 679.75,236.8594 Q679.1563,236.5781 678.5313,236.5781 Q677.1875,236.5781 676.5,237.6563 Q675.8125,238.7188 675.8125,240.8125 Q675.8125,242.9063 676.5,243.9844 Q677.1875,245.0469 678.5313,245.0469 Q679.1563,245.0469 679.75,244.7813 Q680.3438,244.5 680.9688,243.9219 L680.9688,246.6406 Z "/><text fill="#000000" font-family="sans-serif" font-size="12" lengthAdjust="spacingAndGlyphs" textLength="67" x="692" y="245.1543">PrimaryKey</text><!--MD5=[4e20405ce2c7c6a29820acb5e62cdf36]
class Phpolar\\Model\\Size--><rect fill="#FEFECE" height="32" id="Phpolar\\Model\\Size" style="stroke: #A80036; stroke-width: 1.5;" width="56" x="684.5" y="158"/><ellipse cx="699.5" cy="174" fill="#ADD1B2" rx="11" ry="11" style="stroke: #A80036; stroke-width: 1.0;"/><path d="M702.4688,179.6406 Q701.8906,179.9375 701.25,180.0781 Q700.6094,180.2344 699.9063,180.2344 Q697.4063,180.2344 696.0781,178.5938 Q694.7656,176.9375 694.7656,173.8125 Q694.7656,170.6875 696.0781,169.0313 Q697.4063,167.375 699.9063,167.375 Q700.6094,167.375 701.25,167.5313 Q701.9063,167.6875 702.4688,167.9844 L702.4688,170.7031 Q701.8438,170.125 701.25,169.8594 Q700.6563,169.5781 700.0313,169.5781 Q698.6875,169.5781 698,170.6563 Q697.3125,171.7188 697.3125,173.8125 Q697.3125,175.9063 698,176.9844 Q698.6875,178.0469 700.0313,178.0469 Q700.6563,178.0469 701.25,177.7813 Q701.8438,177.5 702.4688,176.9219 L702.4688,179.6406 Z "/><text fill="#000000" font-family="sans-serif" font-size="12" lengthAdjust="spacingAndGlyphs" textLength="24" x="713.5" y="178.1543">Size</text><!--MD5=[9b5c087fb1b9df3d5b02adf17a4b5856]
class Phpolar\\Phpolar\\Core\\AbstractPropertyNameExtractor--><rect fill="#FEFECE" height="32" id="Phpolar\\Phpolar\\Core\\AbstractPropertyNameExtractor" style="stroke: #A80036; stroke-width: 1.5;" width="231" x="38" y="1039"/><ellipse cx="53" cy="1055" fill="#ADD1B2" rx="11" ry="11" style="stroke: #A80036; stroke-width: 1.0;"/><path d="M55.9688,1060.6406 Q55.3906,1060.9375 54.75,1061.0781 Q54.1094,1061.2344 53.4063,1061.2344 Q50.9063,1061.2344 49.5781,1059.5938 Q48.2656,1057.9375 48.2656,1054.8125 Q48.2656,1051.6875 49.5781,1050.0313 Q50.9063,1048.375 53.4063,1048.375 Q54.1094,1048.375 54.75,1048.5313 Q55.4063,1048.6875 55.9688,1048.9844 L55.9688,1051.7031 Q55.3438,1051.125 54.75,1050.8594 Q54.1563,1050.5781 53.5313,1050.5781 Q52.1875,1050.5781 51.5,1051.6563 Q50.8125,1052.7188 50.8125,1054.8125 Q50.8125,1056.9063 51.5,1057.9844 Q52.1875,1059.0469 53.5313,1059.0469 Q54.1563,1059.0469 54.75,1058.7813 Q55.3438,1058.5 55.9688,1057.9219 L55.9688,1060.6406 Z "/><text fill="#000000" font-family="sans-serif" font-size="12" lengthAdjust="spacingAndGlyphs" textLength="199" x="67" y="1059.1543">AbstractPropertyNameExtractor</text><!--MD5=[6278bad95272bcc998b07e0f41b2a1fa]
class Phpolar\\ModelResolver\\ModelResolverInterface--><rect fill="#FEFECE" height="32" id="Phpolar\\ModelResolver\\ModelResolverInterface" style="stroke: #A80036; stroke-width: 1.5;" width="178" x="64.5" y="1156"/><ellipse cx="79.5" cy="1172" fill="#B4A7E5" rx="11" ry="11" style="stroke: #A80036; stroke-width: 1.0;"/><path d="M75.4219,1167.7656 L75.4219,1165.6094 L82.8125,1165.6094 L82.8125,1167.7656 L80.3438,1167.7656 L80.3438,1175.8438 L82.8125,1175.8438 L82.8125,1178 L75.4219,1178 L75.4219,1175.8438 L77.8906,1175.8438 L77.8906,1167.7656 L75.4219,1167.7656 Z "/><text fill="#000000" font-family="sans-serif" font-size="12" font-style="italic" lengthAdjust="spacingAndGlyphs" textLength="146" x="93.5" y="1176.1543">ModelResolverInterface</text><!--MD5=[1e2c527e4cf5935b6ac2ad70203c8df1]
class IteratorAggregate--><rect fill="#FEFECE" height="32" id="IteratorAggregate" style="stroke: #A80036; stroke-width: 1.5;" width="146" x="374" y="8"/><ellipse cx="389" cy="24" fill="#B4A7E5" rx="11" ry="11" style="stroke: #A80036; stroke-width: 1.0;"/><path d="M384.9219,19.7656 L384.9219,17.6094 L392.3125,17.6094 L392.3125,19.7656 L389.8438,19.7656 L389.8438,27.8438 L392.3125,27.8438 L392.3125,30 L384.9219,30 L384.9219,27.8438 L387.3906,27.8438 L387.3906,19.7656 L384.9219,19.7656 Z "/><text fill="#000000" font-family="sans-serif" font-size="12" font-style="italic" lengthAdjust="spacingAndGlyphs" textLength="114" x="403" y="28.1543">IteratorAggregate</text><!--MD5=[2071ae0904a7e29f2c92d088e132f839]
reverse link Phpolar\\Model\\ColumnNameTrait to Phpolar\\Model\\AbstractModel--><path d="M523.09,749 C523.09,749 701,749 701,749 C701,749 701,657.2 701,619.18 " fill="none" id="Phpolar\\Model\\ColumnNameTrait&lt;-Phpolar\\Model\\AbstractModel" style="stroke: #516F42; stroke-width: 1.0;"/><polygon fill="#516F42" points="518.09,749,527.09,753,523.09,749,527.09,745,518.09,749" style="stroke: #516F42; stroke-width: 1.0;"/><text fill="#000000" font-family="sans-serif" font-size="13" lengthAdjust="spacingAndGlyphs" textLength="30" x="591" y="720.0669">uses</text><!--MD5=[770004f122d893269f8e727ec454df05]
reverse link Phpolar\\Model\\DataTypeDetectionTrait to Phpolar\\Model\\AbstractModel--><path d="M542.26,822 C542.26,822 725,822 725,822 C725,822 725,669.68 725,619.1 " fill="none" id="Phpolar\\Model\\DataTypeDetectionTrait&lt;-Phpolar\\Model\\AbstractModel" style="stroke: #516F42; stroke-width: 1.0;"/><polygon fill="#516F42" points="537.26,822,546.26,826,542.26,822,546.26,818,537.26,822" style="stroke: #516F42; stroke-width: 1.0;"/><text fill="#000000" font-family="sans-serif" font-size="13" lengthAdjust="spacingAndGlyphs" textLength="30" x="591" y="787.0669">uses</text><!--MD5=[1a3ee0e3d957eb3e39f33fcbf0541d09]
reverse link Phpolar\\Model\\EntityNameConfigurationTrait to Phpolar\\Model\\AbstractModel--><path d="M546,870.75 C546,870.75 546,608.33 546,608.33 C546,608.33 604.31,608.33 651.92,608.33 " fill="none" id="Phpolar\\Model\\EntityNameConfigurationTrait&lt;-Phpolar\\Model\\AbstractModel" style="stroke: #516F42; stroke-width: 1.0;"/><polygon fill="#516F42" points="546,875.75,550,866.75,546,870.75,542,866.75,546,875.75" style="stroke: #516F42; stroke-width: 1.0;"/><text fill="#000000" font-family="sans-serif" font-size="13" lengthAdjust="spacingAndGlyphs" textLength="30" x="591" y="864.0669">uses</text><!--MD5=[6e5c3ac4be7b8ed815643df5fe390f87]
reverse link Phpolar\\Model\\FieldErrorMessageTrait to Phpolar\\Model\\AbstractModel--><path d="M540.16,968 C540.16,968 749,968 749,968 C749,968 749,689.79 749,619.15 " fill="none" id="Phpolar\\Model\\FieldErrorMessageTrait&lt;-Phpolar\\Model\\AbstractModel" style="stroke: #516F42; stroke-width: 1.0;"/><polygon fill="#516F42" points="535.16,968,544.16,972,540.16,968,544.16,964,535.16,968" style="stroke: #516F42; stroke-width: 1.0;"/><text fill="#000000" font-family="sans-serif" font-size="13" lengthAdjust="spacingAndGlyphs" textLength="30" x="591" y="961.0669">uses</text><!--MD5=[fec20547fd3ed8fece5d931ec1a55fba]
reverse link Phpolar\\Model\\FormInputTypeDetectionTrait to Phpolar\\Model\\AbstractModel--><path d="M558.5,311 C558.5,311 660,311 660,311 C660,311 660,525.67 660,586.88 " fill="none" id="Phpolar\\Model\\FormInputTypeDetectionTrait&lt;-Phpolar\\Model\\AbstractModel" style="stroke: #516F42; stroke-width: 1.0;"/><polygon fill="#516F42" points="553.5,311,562.5,315,558.5,311,562.5,307,553.5,311" style="stroke: #516F42; stroke-width: 1.0;"/><text fill="#000000" font-family="sans-serif" font-size="13" lengthAdjust="spacingAndGlyphs" textLength="30" x="591" y="322.0669">uses</text><!--MD5=[1956f99e9c69ce91ccc8779b36c125eb]
reverse link Phpolar\\Model\\FormControlTypeDetectionTrait to Phpolar\\Model\\AbstractModel--><path d="M565.22,384 C565.22,384 658,384 658,384 C658,384 658,536.32 658,586.9 " fill="none" id="Phpolar\\Model\\FormControlTypeDetectionTrait&lt;-Phpolar\\Model\\AbstractModel" style="stroke: #516F42; stroke-width: 1.0;"/><polygon fill="#516F42" points="560.22,384,569.22,388,565.22,384,569.22,380,560.22,384" style="stroke: #516F42; stroke-width: 1.0;"/><text fill="#000000" font-family="sans-serif" font-size="13" lengthAdjust="spacingAndGlyphs" textLength="30" x="591" y="394.0669">uses</text><!--MD5=[32237c8da51f6536155e45be6017420a]
reverse link Phpolar\\Model\\LabelFormatTrait to Phpolar\\Model\\AbstractModel--><path d="M520.72,457 C520.72,457 656,457 656,457 C656,457 656,548.8 656,586.82 " fill="none" id="Phpolar\\Model\\LabelFormatTrait&lt;-Phpolar\\Model\\AbstractModel" style="stroke: #516F42; stroke-width: 1.0;"/><polygon fill="#516F42" points="515.72,457,524.72,461,520.72,457,524.72,453,515.72,457" style="stroke: #516F42; stroke-width: 1.0;"/><text fill="#000000" font-family="sans-serif" font-size="13" lengthAdjust="spacingAndGlyphs" textLength="30" x="591" y="465.0669">uses</text><!--MD5=[07ad1d8101cc4cf3fd3ad8cc28c2f5a4]
reverse link Phpolar\\Model\\PrimaryKeyTrait to Phpolar\\Model\\AbstractModel--><path d="M515.51,530 C515.51,530 654,530 654,530 C654,530 654,565.29 654,586.8 " fill="none" id="Phpolar\\Model\\PrimaryKeyTrait&lt;-Phpolar\\Model\\AbstractModel" style="stroke: #516F42; stroke-width: 1.0;"/><polygon fill="#516F42" points="510.51,530,519.51,534,515.51,530,519.51,526,510.51,530" style="stroke: #516F42; stroke-width: 1.0;"/><text fill="#000000" font-family="sans-serif" font-size="13" lengthAdjust="spacingAndGlyphs" textLength="30" x="591" y="534.0669">uses</text><!--MD5=[f5f4df12fcfb4c150f85e2f27e2604d9]
reverse link Phpolar\\Model\\SizeConfigurationTrait to Phpolar\\Model\\AbstractModel--><path d="M536.01,597.67 C536.01,597.67 651.76,597.67 651.76,597.67 " fill="none" id="Phpolar\\Model\\SizeConfigurationTrait&lt;-Phpolar\\Model\\AbstractModel" style="stroke: #516F42; stroke-width: 1.0;"/><polygon fill="#516F42" points="531.01,597.67,540.01,601.67,536.01,597.67,540.01,593.67,531.01,597.67" style="stroke: #516F42; stroke-width: 1.0;"/><text fill="#000000" font-family="sans-serif" font-size="13" lengthAdjust="spacingAndGlyphs" textLength="30" x="591" y="599.0669">uses</text><!--MD5=[f3999346b7a2bcbca2760bebc8f9aa8f]
reverse link Phpolar\\Model\\ValidationTrait to Phpolar\\Model\\AbstractModel--><path d="M513.03,676 C513.03,676 677,676 677,676 C677,676 677,640.71 677,619.2 " fill="none" id="Phpolar\\Model\\ValidationTrait&lt;-Phpolar\\Model\\AbstractModel" style="stroke: #516F42; stroke-width: 1.0;"/><polygon fill="#516F42" points="508.03,676,517.03,680,513.03,676,517.03,672,508.03,676" style="stroke: #516F42; stroke-width: 1.0;"/><text fill="#000000" font-family="sans-serif" font-size="13" lengthAdjust="spacingAndGlyphs" textLength="30" x="591" y="658.0669">uses</text><!--MD5=[6891cf88eccecacf9fd11952041ad4d3]
reverse link IteratorAggregate to Phpolar\\Model\\AbstractModel--><path d="M540.09,24 C540.09,24 662,24 662,24 C662,24 662,493.4 662,586.91 " fill="none" id="IteratorAggregate&lt;-Phpolar\\Model\\AbstractModel" style="stroke: #516F42; stroke-width: 1.0; stroke-dasharray: 7.0,7.0;"/><polygon fill="none" points="540.09,31,520.09,24,540.09,17,540.09,31" style="stroke: #516F42; stroke-width: 1.0;"/><!--MD5=[724cb88c4c392bf072587f21cfbe80eb]
reverse link Phpolar\\Phpolar\\Core\\AbstractPropertyNameExtractor to Phpolar\\Model\\Column--><path d="M289.08,1046.5 C289.08,1046.5 407.96,1046.5 407.96,1046.5 " fill="none" id="Phpolar\\Phpolar\\Core\\AbstractPropertyNameExtractor&lt;-Phpolar\\Model\\Column" style="stroke: #516F42; stroke-width: 1.0;"/><polygon fill="none" points="289.08,1053.5,269.08,1046.5,289.08,1039.5,289.08,1053.5" style="stroke: #516F42; stroke-width: 1.0;"/><!--MD5=[52af586999443e1ad64262b2284255fd]
reverse link Phpolar\\Phpolar\\Core\\AbstractPropertyNameExtractor to Phpolar\\Model\\Label--><path d="M256,1091.1 C256,1091.1 256,1105 256,1105 C256,1105 359.56,1105 414.17,1105 " fill="none" id="Phpolar\\Phpolar\\Core\\AbstractPropertyNameExtractor&lt;-Phpolar\\Model\\Label" style="stroke: #516F42; stroke-width: 1.0;"/><polygon fill="none" points="249,1091.1,256,1071.1,263,1091.1,249,1091.1" style="stroke: #516F42; stroke-width: 1.0;"/><!--MD5=[d22a91481d4ac8ef0563241e1b378b18]
reverse link Phpolar\\ModelResolver\\ModelResolverInterface to Phpolar\\Model\\ModelResolver--><path d="M262.76,1172 C262.76,1172 385.59,1172 385.59,1172 " fill="none" id="Phpolar\\ModelResolver\\ModelResolverInterface&lt;-Phpolar\\Model\\ModelResolver" style="stroke: #516F42; stroke-width: 1.0; stroke-dasharray: 7.0,7.0;"/><polygon fill="none" points="262.76,1179,242.76,1172,262.76,1165,262.76,1179" style="stroke: #516F42; stroke-width: 1.0;"/><!--MD5=[a010fa37cde7782a03105c681e4d379a]
link Phpolar\\Model\\EntityName to Phpolar\\Model\\Hidden--><!--MD5=[d20b77ecfa50c50740f30f9114b9907d]
link Phpolar\\Model\\Hidden to Phpolar\\Model\\Model--><!--MD5=[5fdd0fd1784dc835af54cbe89d832488]
link Phpolar\\Model\\EntityName to Phpolar\\Model\\PrimaryKey--><!--MD5=[3d4eb79c16d5fdb7ea864414380e7851]
link Phpolar\\Model\\PrimaryKey to Phpolar\\Model\\Size--><!--MD5=[ae740d5c2d4e82a518541ba76989b523]
@startuml
   skinparam ArrowColor #516f42
   skinparam activityBorderColor #516f42
   skinparam activityBackgroundColor #ffffff
   skinparam activityDiamondBorderColor #516f42
   skinparam activityDiamondBackgroundColor #ffffff
   skinparam shadowing false

skinparam shadowing false
skinparam linetype ortho
hide empty members
left to right direction
set namespaceSeparator \\

\\Phpolar\\Model\\ColumnNameTrait <- - \\Phpolar\\Model\\AbstractModel : uses
\\Phpolar\\Model\\DataTypeDetectionTrait <- - \\Phpolar\\Model\\AbstractModel : uses
\\Phpolar\\Model\\EntityNameConfigurationTrait <- - \\Phpolar\\Model\\AbstractModel : uses
\\Phpolar\\Model\\FieldErrorMessageTrait <- - \\Phpolar\\Model\\AbstractModel : uses
\\Phpolar\\Model\\FormInputTypeDetectionTrait <- - \\Phpolar\\Model\\AbstractModel : uses
\\Phpolar\\Model\\FormControlTypeDetectionTrait <- - \\Phpolar\\Model\\AbstractModel : uses
\\Phpolar\\Model\\LabelFormatTrait <- - \\Phpolar\\Model\\AbstractModel : uses
\\Phpolar\\Model\\PrimaryKeyTrait <- - \\Phpolar\\Model\\AbstractModel : uses
\\Phpolar\\Model\\SizeConfigurationTrait <- - \\Phpolar\\Model\\AbstractModel : uses
\\Phpolar\\Model\\ValidationTrait <- - \\Phpolar\\Model\\AbstractModel : uses

abstract class \\Phpolar\\Model\\AbstractModel implements \\IteratorAggregate {
}

class \\Phpolar\\Model\\Column extends \\Phpolar\\Phpolar\\Core\\AbstractPropertyNameExtractor {
}

class \\Phpolar\\Model\\EntityName {
}

class \\Phpolar\\Model\\Hidden {
}

class \\Phpolar\\Model\\Label extends \\Phpolar\\Phpolar\\Core\\AbstractPropertyNameExtractor {
}

class \\Phpolar\\Model\\Model {
}

class \\Phpolar\\Model\\ModelResolver implements \\Phpolar\\ModelResolver\\ModelResolverInterface {
}

class \\Phpolar\\Model\\PrimaryKey {
}

class \\Phpolar\\Model\\Size {
}

class \\Phpolar\\Model\\ColumnNameTrait << (T,#FF7700) Trait >> {
}

class \\Phpolar\\Model\\DataTypeDetectionTrait << (T,#FF7700) Trait >> {
}

class \\Phpolar\\Model\\EntityNameConfigurationTrait << (T,#FF7700) Trait >> {
}

class \\Phpolar\\Model\\FieldErrorMessageTrait << (T,#FF7700) Trait >> {
}

class \\Phpolar\\Model\\FormControlTypeDetectionTrait << (T,#FF7700) Trait >> {
}

class \\Phpolar\\Model\\FormInputTypeDetectionTrait << (T,#FF7700) Trait >> {
}

class \\Phpolar\\Model\\LabelFormatTrait << (T,#FF7700) Trait >> {
}

class \\Phpolar\\Model\\PrimaryKeyTrait << (T,#FF7700) Trait >> {
}

class \\Phpolar\\Model\\SizeConfigurationTrait << (T,#FF7700) Trait >> {
}

class \\Phpolar\\Model\\ValidationTrait << (T,#FF7700) Trait >> {
}

@enduml

PlantUML version 1.2020.02(Sun Mar 01 04:22:07 CST 2020)
(GPL source distribution)
Java Runtime: OpenJDK Runtime Environment
JVM: OpenJDK 64-Bit Server VM
Java Version: 11.0.20.1+1-post-Ubuntu-0ubuntu122.04
Operating System: Linux
Default Encoding: UTF-8
Language: en
Country: US
--></g></svg>
